<svg width="69" height="60" viewBox="0 0 69 60" fill="none" xmlns="http://www.w3.org/2000/svg">
<path d="M35.5886 9.244L31.0194 14.4242L23.0059 7.42084L27.5751 2.24067L35.5886 9.244Z" fill="url(#paint0_linear_105_5)"/>
<path d="M46.98 33.6818L60.2706 45.2962L50.9704 55.8389L37.6797 44.2243L35.3611 42.1984L44.6615 31.6557L46.98 33.6818Z" fill="#2E8FE7"/>
<path d="M35.2661 46.9603L38.1923 49.5174L31.1134 57.5419L25.8685 52.9587L27.4151 51.2057L32.9477 44.9341L35.2661 46.9603Z" fill="#2D3DCC"/>
<path d="M49.8909 25.7277L51.8765 23.4769L57.1211 28.0602L52.5512 33.2405L49.6251 30.6835L52.2094 27.7538L49.8909 25.7277ZM49.6251 30.6835L47.3066 28.6573L49.8909 25.7277L52.2094 27.7538L49.6251 30.6835Z" fill="#1578D3"/>
<path d="M11.1281 36.9727L9.58183 38.7257L1.56783 31.7225L8.64674 23.698L14.2641 28.607L16.6608 30.7014L11.1281 36.9727Z" fill="#2FD6FF"/>
<path d="M28.3746 17.4228L19.0742 27.9655L16.6777 25.8711L3.51151 14.3655L12.8119 3.82279L25.9781 15.3284L28.3746 17.4228Z" fill="#1578D3"/>
<path d="M33.6041 11.495L31.0197 14.4244L28.6231 12.3302L23.0057 7.4212L27.5756 2.24086L35.5896 9.24406L33.6041 11.495Z" fill="#94EAFF"/>
<path d="M17.1557 59.8483L4.01472 48.2777L45.1517 1.54725L58.6879 12.7712L17.1557 59.8483Z" fill="#18B5DC"/>
<defs>
<linearGradient id="paint0_linear_105_5" x1="-25.5068" y1="1.56486" x2="63.5809" y2="34.9301" gradientUnits="userSpaceOnUse">
<stop stop-color="#C06FBB"/>
<stop offset="1" stop-color="#6E4D9B"/>
</linearGradient>
</defs>
</svg>
