<svg width="43" height="42" viewBox="0 0 43 42" fill="none" xmlns="http://www.w3.org/2000/svg">
<rect width="42.0045" height="42" fill="#5DCBE6"/>
<path d="M21.0044 15.8723C18.1661 15.8723 15.8767 18.1617 15.8767 21C15.8767 23.8384 18.1661 26.1278 21.0044 26.1278C23.8427 26.1278 26.1321 23.8384 26.1321 21C26.1321 18.1617 23.8427 15.8723 21.0044 15.8723ZM21.0044 24.3337C19.1702 24.3337 17.6707 22.8387 17.6707 21C17.6707 19.1613 19.1657 17.6663 21.0044 17.6663C22.8431 17.6663 24.3381 19.1613 24.3381 21C24.3381 22.8387 22.8386 24.3337 21.0044 24.3337ZM27.5379 15.6625C27.5379 16.3275 27.0024 16.8585 26.3419 16.8585C25.6769 16.8585 25.1459 16.323 25.1459 15.6625C25.1459 15.002 25.6814 14.4665 26.3419 14.4665C27.0024 14.4665 27.5379 15.002 27.5379 15.6625ZM30.9341 16.8764C30.8582 15.2743 30.4923 13.8551 29.3186 12.6858C28.1493 11.5166 26.7302 11.1506 25.128 11.0703C23.4768 10.9766 18.5276 10.9766 16.8763 11.0703C15.2786 11.1462 13.8595 11.5121 12.6858 12.6814C11.512 13.8506 11.1506 15.2698 11.0702 16.8719C10.9765 18.5232 10.9765 23.4724 11.0702 25.1236C11.1461 26.7258 11.512 28.1449 12.6858 29.3142C13.8595 30.4834 15.2742 30.8494 16.8763 30.9297C18.5276 31.0234 23.4768 31.0234 25.128 30.9297C26.7302 30.8539 28.1493 30.4879 29.3186 29.3142C30.4878 28.1449 30.8538 26.7258 30.9341 25.1236C31.0278 23.4724 31.0278 18.5276 30.9341 16.8764ZM28.8009 26.8954C28.4528 27.7701 27.7789 28.444 26.8998 28.7965C25.5832 29.3187 22.4593 29.1982 21.0044 29.1982C19.5495 29.1982 16.4211 29.3142 15.1091 28.7965C14.2343 28.4484 13.5605 27.7745 13.2079 26.8954C12.6858 25.5788 12.8063 22.4549 12.8063 21C12.8063 19.5451 12.6902 16.4167 13.2079 15.1047C13.556 14.23 14.2299 13.5561 15.1091 13.2035C16.4256 12.6814 19.5495 12.8019 21.0044 12.8019C22.4593 12.8019 25.5877 12.6858 26.8998 13.2035C27.7745 13.5516 28.4483 14.2255 28.8009 15.1047C29.323 16.4212 29.2026 19.5451 29.2026 21C29.2026 22.4549 29.323 25.5833 28.8009 26.8954Z" fill="white"/>
</svg>
