<svg width="44" height="42" viewBox="0 0 44 42" fill="none" xmlns="http://www.w3.org/2000/svg">
<rect x="0.5" y="-0.5" width="41.0045" height="41" transform="matrix(1 0 0 -1 0.997772 41)" fill="white"/>
<path d="M16.4767 31H12.3301V17.647H16.4767V31ZM14.4012 15.8256C13.0753 15.8256 11.9998 14.7273 11.9998 13.4014C11.9998 12.7645 12.2528 12.1537 12.7031 11.7034C13.1535 11.253 13.7643 11 14.4012 11C15.0381 11 15.6489 11.253 16.0992 11.7034C16.5496 12.1537 16.8026 12.7645 16.8026 13.4014C16.8026 14.7273 15.7266 15.8256 14.4012 15.8256ZM31.9958 31H27.8582V24.4999C27.8582 22.9507 27.8269 20.9641 25.7023 20.9641C23.5465 20.9641 23.2161 22.6471 23.2161 24.3882V31H19.074V17.647H23.0509V19.4685H23.109C23.6625 18.4194 25.0148 17.3122 27.0323 17.3122C31.2288 17.3122 32.0002 20.0756 32.0002 23.665V31H31.9958Z" fill="#18B5DC"/>
<rect x="0.5" y="-0.5" width="41.0045" height="41" transform="matrix(1 0 0 -1 0.997772 41)" stroke="#18B5DC"/>
</svg>
