<svg width="42" height="42" viewBox="0 0 42 42" fill="none" xmlns="http://www.w3.org/2000/svg">
<rect width="41.9999" height="42" fill="#5DCBE6"/>
<path d="M28.9441 16.9264C28.9568 17.104 28.9568 17.2817 28.9568 17.4594C28.9568 22.8781 24.8325 29.1218 17.2944 29.1218C14.9721 29.1218 12.8147 28.4492 11 27.2817C11.33 27.3198 11.6472 27.3325 11.9898 27.3325C13.9061 27.3325 15.67 26.6853 17.0787 25.5812C15.2766 25.5431 13.7665 24.3629 13.2462 22.7386C13.5 22.7766 13.7538 22.802 14.0203 22.802C14.3883 22.802 14.7564 22.7512 15.099 22.6624C13.2208 22.2817 11.8121 20.632 11.8121 18.6396V18.5888C12.3578 18.8934 12.9924 19.0838 13.6649 19.1091C12.5609 18.3731 11.8375 17.1167 11.8375 15.6954C11.8375 14.934 12.0405 14.236 12.3959 13.6269C14.4137 16.1142 17.4467 17.7385 20.8477 17.9162C20.7842 17.6117 20.7461 17.2944 20.7461 16.9772C20.7461 14.7183 22.5736 12.8782 24.8451 12.8782C26.0253 12.8782 27.0913 13.3731 27.84 14.1726C28.7664 13.9949 29.6547 13.6523 30.4416 13.1828C30.137 14.1346 29.4898 14.934 28.6395 15.4416C29.4644 15.3528 30.2639 15.1244 30.9999 14.8071C30.4416 15.6193 29.7436 16.3426 28.9441 16.9264Z" fill="white"/>
</svg>
