<svg width="43" height="42" viewBox="0 0 43 42" fill="none" xmlns="http://www.w3.org/2000/svg">
<rect x="1.4933" y="0.5" width="41" height="41" fill="#18B5DC"/>
<path d="M29.9375 16.9264C29.9502 17.104 29.9502 17.2817 29.9502 17.4594C29.9502 22.8781 25.8258 29.1218 18.2878 29.1218C15.9654 29.1218 13.8081 28.4492 11.9933 27.2817C12.3233 27.3198 12.6405 27.3325 12.9832 27.3325C14.8994 27.3325 16.6634 26.6853 18.072 25.5812C16.27 25.5431 14.7598 24.3629 14.2395 22.7386C14.4933 22.7766 14.7471 22.802 15.0137 22.802C15.3817 22.802 15.7497 22.7512 16.0923 22.6624C14.2142 22.2817 12.8055 20.632 12.8055 18.6396V18.5888C13.3512 18.8934 13.9857 19.0838 14.6583 19.1091C13.5542 18.3731 12.8309 17.1167 12.8309 15.6954C12.8309 14.934 13.0339 14.236 13.3892 13.6269C15.407 16.1142 18.44 17.7385 21.841 17.9162C21.7776 17.6117 21.7395 17.2944 21.7395 16.9772C21.7395 14.7183 23.5669 12.8782 25.8385 12.8782C27.0187 12.8782 28.0846 13.3731 28.8334 14.1726C29.7598 13.9949 30.6481 13.6523 31.4349 13.1827C31.1303 14.1345 30.4831 14.934 29.6329 15.4416C30.4578 15.3528 31.2573 15.1243 31.9933 14.8071C31.435 15.6193 30.737 16.3426 29.9375 16.9264Z" fill="white"/>
<rect x="1.4933" y="0.5" width="41" height="41" stroke="#18B5DC"/>
</svg>
