<svg width="628" height="760" viewBox="0 0 628 760" fill="none" xmlns="http://www.w3.org/2000/svg">
<path d="M473.849 583.135C471.401 583.135 469.027 582.305 467.112 580.781C465.198 579.256 463.858 577.127 463.311 574.742C462.763 572.357 463.041 569.857 464.099 567.65C465.157 565.444 466.933 563.661 469.135 562.595C478.445 558.107 487.347 552.819 495.74 546.789C498.07 545.232 500.913 544.641 503.67 545.139C506.427 545.637 508.883 547.187 510.52 549.46C512.157 551.734 512.848 554.554 512.446 557.327C512.045 560.1 510.582 562.608 508.368 564.324C498.957 571.074 488.981 576.999 478.551 582.032C477.087 582.75 475.479 583.127 473.849 583.135Z" fill="#EAEAEA"/>
<path d="M378.378 605.405C333.477 605.405 289.583 592.09 252.249 567.144C214.914 542.198 185.816 506.742 168.633 465.258C151.449 423.774 146.954 378.127 155.713 334.088C164.473 290.049 186.096 249.596 217.846 217.846C249.596 186.096 290.049 164.473 334.087 155.714C378.126 146.954 423.774 151.45 465.258 168.633C506.741 185.816 542.198 214.914 567.144 252.249C592.09 289.583 605.405 333.477 605.405 378.378C605.405 382.173 605.286 385.849 605.059 389.643C604.838 392.488 603.518 395.135 601.379 397.023C599.24 398.912 596.45 399.894 593.6 399.762C590.738 399.584 588.065 398.277 586.167 396.128C584.27 393.979 583.303 391.164 583.481 388.303C583.686 384.962 583.784 381.719 583.784 378.378C583.784 337.753 571.737 298.04 549.167 264.261C526.596 230.482 494.516 204.155 456.983 188.608C419.451 173.062 378.15 168.994 338.306 176.92C298.461 184.845 261.861 204.408 233.135 233.135C204.408 261.861 184.845 298.461 176.92 338.306C168.994 378.151 173.062 419.451 188.608 456.984C204.155 494.517 230.482 526.596 264.261 549.167C298.04 571.737 337.753 583.784 378.378 583.784C381.621 583.784 384.865 583.686 388.108 583.481C389.528 583.392 390.951 583.584 392.297 584.045C393.642 584.507 394.884 585.229 395.95 586.17C397.017 587.111 397.888 588.253 398.513 589.531C399.138 590.808 399.506 592.197 399.594 593.616C399.683 595.036 399.491 596.459 399.03 597.805C398.569 599.15 397.847 600.392 396.906 601.458C395.965 602.525 394.823 603.396 393.545 604.021C392.267 604.646 390.879 605.014 389.459 605.103C385.751 605.297 382.065 605.405 378.378 605.405Z" fill="#EAEAEA"/>
<path d="M555.557 512.865C553.566 512.865 551.615 512.315 549.916 511.276C548.218 510.238 546.84 508.75 545.933 506.978C545.027 505.206 544.627 503.218 544.778 501.233C544.929 499.249 545.625 497.344 546.789 495.73C552.804 487.367 558.106 478.515 562.638 469.265C563.919 466.713 566.158 464.771 568.865 463.864C571.573 462.956 574.529 463.157 577.09 464.422C579.65 465.687 581.605 467.914 582.529 470.616C583.453 473.318 583.271 476.275 582.022 478.843C576.96 489.163 571.04 499.039 564.325 508.367C563.324 509.758 562.007 510.891 560.483 511.673C558.959 512.455 557.27 512.863 555.557 512.865Z" fill="#EAEAEA"/>
<path d="M440.779 433.827C438.568 433.825 436.411 433.146 434.598 431.88C432.786 430.615 431.405 428.824 430.641 426.749C429.878 424.675 429.769 422.416 430.329 420.277C430.889 418.139 432.091 416.223 433.773 414.789L476.563 378.378L433.773 341.967C432.692 341.045 431.804 339.918 431.158 338.652C430.512 337.385 430.122 336.004 430.01 334.587C429.898 333.17 430.067 331.745 430.505 330.393C430.944 329.041 431.645 327.789 432.568 326.708C433.491 325.627 434.617 324.738 435.884 324.093C437.15 323.447 438.531 323.057 439.948 322.945C441.365 322.833 442.79 323.001 444.142 323.44C445.494 323.879 446.746 324.58 447.827 325.503L500.281 370.14C501.476 371.155 502.435 372.418 503.093 373.84C503.751 375.263 504.091 376.811 504.091 378.378C504.091 379.946 503.751 381.494 503.093 382.916C502.435 384.339 501.476 385.601 500.281 386.616L447.827 431.254C445.86 432.926 443.36 433.838 440.779 433.827Z" fill="#EAEAEA"/>
<path d="M315.979 433.827C313.408 433.831 310.921 432.918 308.962 431.254L256.508 386.616C255.314 385.601 254.355 384.339 253.697 382.916C253.039 381.494 252.698 379.946 252.698 378.378C252.698 376.811 253.039 375.263 253.697 373.84C254.355 372.418 255.314 371.155 256.508 370.14L308.962 325.503C311.146 323.639 313.98 322.719 316.842 322.945C319.703 323.171 322.358 324.525 324.222 326.708C326.085 328.891 327.005 331.726 326.779 334.587C326.553 337.449 325.2 340.104 323.016 341.968L280.195 378.378L322.984 414.789C324.666 416.223 325.868 418.139 326.429 420.277C326.989 422.416 326.88 424.675 326.116 426.75C325.353 428.824 323.972 430.615 322.159 431.88C320.346 433.146 318.189 433.825 315.979 433.827Z" fill="#EAEAEA"/>
<path d="M341.946 487.405C340.661 487.401 339.388 487.17 338.184 486.724C335.496 485.727 333.314 483.704 332.118 481.099C330.922 478.494 330.809 475.52 331.805 472.832L404.681 276.411C405.178 275.08 405.932 273.86 406.9 272.82C407.869 271.781 409.032 270.942 410.325 270.352C411.617 269.763 413.013 269.433 414.433 269.383C415.853 269.333 417.269 269.562 418.6 270.059C419.931 270.556 421.151 271.31 422.19 272.279C423.23 273.247 424.068 274.411 424.658 275.703C425.248 276.996 425.577 278.392 425.628 279.812C425.678 281.232 425.448 282.647 424.951 283.978L352.075 480.346C351.31 482.416 349.928 484.202 348.118 485.464C346.307 486.726 344.153 487.403 341.946 487.405Z" fill="#EAEAEA"/>
<path d="M426.469 760H333.531C328.559 759.964 323.747 758.237 319.885 755.104C316.024 751.971 313.343 747.617 312.284 742.759L302.219 692.523C271.175 684.793 241.466 672.453 214.081 655.913L171.478 684.239C167.334 687.007 162.363 688.265 157.401 687.803C152.439 687.34 147.787 685.185 144.226 681.698L78.5189 615.893C74.9759 612.303 72.7881 607.595 72.3288 602.572C71.8694 597.549 73.167 592.522 76 588.349L104.229 546.006C87.6537 518.619 75.3213 488.881 67.6509 457.802L17.3714 447.749C12.4872 446.706 8.10427 444.03 4.94607 440.161C1.78788 436.293 0.043197 431.463 0 426.469V333.531C0.0361408 328.559 1.76269 323.747 4.89593 319.885C8.02917 316.024 12.3827 313.343 17.2411 312.284L67.5749 302.187C75.247 271.114 87.5754 241.38 104.142 213.994L75.7611 171.543C72.9875 167.397 71.726 162.422 72.1886 157.455C72.6513 152.488 74.81 147.832 78.3017 144.27L144.107 78.4754C147.69 74.9266 152.394 72.7313 157.415 72.264C162.436 71.7967 167.464 73.0864 171.641 75.9131L213.983 104.196C241.387 87.6274 271.123 75.2681 302.198 67.5314L312.251 17.3714C313.294 12.4872 315.97 8.10427 319.839 4.94607C323.707 1.78788 328.537 0.043197 333.531 0H426.469C431.441 0.0361408 436.253 1.76269 440.115 4.89593C443.976 8.02917 446.657 12.3827 447.716 17.2411L457.781 67.4771C488.907 75.1812 518.688 87.5499 546.114 104.163L588.457 75.772C592.603 72.9984 597.578 71.7368 602.545 72.1995C607.512 72.6622 612.168 74.8208 615.73 78.3126L681.535 144.107C685.095 147.684 687.298 152.388 687.766 157.413C688.234 162.438 686.937 167.468 684.098 171.641L655.869 214.081C672.415 241.459 684.756 271.166 692.479 302.209L742.542 312.251C747.442 313.276 751.845 315.945 755.02 319.815C758.195 323.686 759.952 328.525 760 333.531V426.469C759.964 431.441 758.237 436.253 755.104 440.115C751.971 443.976 747.617 446.657 742.759 447.716L692.523 457.791C684.8 488.834 672.459 518.541 655.913 545.919L684.25 588.522C687.016 592.668 688.273 597.639 687.808 602.601C687.344 607.563 685.186 612.214 681.698 615.774L615.893 681.579C612.309 685.126 607.606 687.32 602.585 687.787C597.564 688.254 592.537 686.966 588.359 684.141L546.017 655.837C518.607 672.445 488.845 684.814 457.737 692.523L447.749 742.629C446.706 747.513 444.03 751.896 440.161 755.054C436.293 758.212 431.463 759.957 426.469 760ZM213.886 632.135C215.918 632.13 217.91 632.702 219.629 633.786C248.574 652.171 280.473 665.427 313.923 672.969C315.97 673.432 317.839 674.479 319.303 675.982C320.767 677.485 321.765 679.38 322.175 681.438L333.542 738.286H426.371L437.858 681.438C438.268 679.378 439.267 677.482 440.734 675.979C442.2 674.476 444.071 673.43 446.12 672.969C479.571 665.465 511.465 652.211 540.382 633.797C542.185 632.696 544.261 632.126 546.373 632.151C548.486 632.176 550.548 632.795 552.325 633.938L600.519 666.183L666.183 600.541L634.524 553.041C634.115 552.547 633.752 552.016 633.438 551.456C632.493 549.759 632.021 547.839 632.07 545.897C632.12 543.954 632.69 542.061 633.721 540.414C652.111 511.472 665.367 479.572 672.904 446.12C673.367 444.073 674.414 442.205 675.917 440.74C677.419 439.276 679.315 438.278 681.373 437.869L738.286 426.458V333.531L681.438 322.131C679.38 321.722 677.485 320.724 675.982 319.26C674.479 317.795 673.432 315.927 672.969 313.88C665.432 280.428 652.176 248.528 633.786 219.586C632.747 217.944 632.167 216.053 632.108 214.111C632.049 212.169 632.512 210.246 633.449 208.544C633.827 207.851 634.283 207.202 634.806 206.611L666.162 159.459L600.53 93.7731L552.368 126.062C550.592 127.207 548.53 127.828 546.417 127.853C544.304 127.878 542.227 127.306 540.425 126.203C511.508 107.789 479.614 94.5347 446.163 87.0309C444.115 86.5695 442.244 85.524 440.777 84.0209C439.311 82.5178 438.312 80.6217 437.901 78.5623L426.458 21.7143H333.531L322.142 78.5623C321.732 80.6203 320.735 82.5154 319.27 84.0183C317.806 85.5213 315.937 86.5677 313.891 87.0309C280.44 94.5734 248.541 107.829 219.597 126.214C217.822 127.338 215.759 127.923 213.659 127.898C211.558 127.873 209.51 127.239 207.762 126.073L159.448 93.8274L93.7731 159.459L126.073 207.751C127.239 209.499 127.873 211.547 127.898 213.648C127.923 215.748 127.338 217.811 126.214 219.586C107.83 248.508 94.6047 280.402 87.1286 313.847C86.6482 316.012 85.5168 317.977 83.8864 319.479C82.256 320.982 80.2049 321.949 78.0086 322.251L21.7143 333.542V426.469L78.3777 437.825C80.4946 438.199 82.4544 439.188 84.0126 440.669C85.5707 442.15 86.6583 444.057 87.1394 446.153C94.616 479.598 107.841 511.492 126.225 540.414C127.348 542.187 127.934 544.247 127.911 546.345C127.888 548.444 127.257 550.49 126.095 552.238L93.9577 600.541L159.481 666.238L206.981 634.557C208.934 632.991 211.361 632.137 213.864 632.135H213.886Z" fill="#EAEAEA"/>
</svg>
