<svg width="150" height="30" viewBox="0 0 150 30" fill="none" xmlns="http://www.w3.org/2000/svg">
<path d="M0.969828 23.1675C0.323276 21.7539 0 20.0916 0 18.1806C0 16.2696 0.309806 14.5812 0.929418 13.1152C1.57597 11.623 2.45151 10.3403 3.55603 9.26702C5.89978 7.04188 8.83621 5.92932 12.3653 5.92932C16.056 5.92932 19.1002 6.75393 21.4978 8.40314C24.1918 10.288 25.5388 12.9843 25.5388 16.4921C25.5388 20.8377 24.5016 24.0445 22.4273 26.1126C20.3798 28.1806 17.174 29.2147 12.8098 29.2147C6.74838 29.2147 2.80172 27.199 0.969828 23.1675ZM3.31358 17.3953C3.31358 23.5733 6.5194 26.6623 12.931 26.6623C16.083 26.6623 18.6422 25.7461 20.6088 23.9136C22.5754 22.1073 23.5587 19.7382 23.5587 16.8063C23.5587 14.0576 22.3869 11.9634 20.0431 10.5236C18.0496 9.26702 15.5307 8.63874 12.4865 8.63874C10.062 8.63874 7.92026 9.48953 6.06142 11.1911C4.22953 12.8927 3.31358 14.9607 3.31358 17.3953Z" fill="#F8F1EA"/>
<path d="M43.6827 21.1649C43.6827 18.0497 43.5075 15.7592 43.1573 14.2932C43.3728 13.9005 43.0496 13.7042 42.1875 13.7042C41.2715 13.7042 40.0862 13.9267 38.6315 14.3717C37.1767 14.8168 35.9914 15.2618 35.0754 15.7068C32.8933 16.7277 31.681 17.7225 31.4386 18.6911V29.3717H28.7311C28.3809 28.4817 28.2058 25.9817 28.2058 21.8717C28.2058 18.2068 28.2732 15.5105 28.4079 13.7827C28.5695 12.055 28.6907 11.0733 28.7716 10.8377C29.472 10.3927 30.0377 10.1702 30.4688 10.1702C31.1422 10.1702 31.479 10.9424 31.479 12.4869C31.479 13.089 31.4386 13.678 31.3578 14.2539C31.3039 14.8037 31.2769 15.1832 31.2769 15.3927C35.6412 12.2775 39.0221 10.7199 41.4197 10.7199C44.1406 10.7199 45.6897 12.8534 46.0668 17.1204C46.2284 18.6126 46.3093 20.6806 46.3093 23.3246L46.2689 26.4267C46.2689 27.5785 46.2958 28.6911 46.3497 29.7644C46.0803 29.9215 45.8648 30 45.7031 30C45.6223 29.9738 45.4472 29.9346 45.1778 29.8822C44.9084 29.8298 44.5582 29.7906 44.1272 29.7644C43.8578 28.7173 43.7096 27.6571 43.6827 26.5838C43.6557 25.4843 43.6422 24.4764 43.6422 23.5602L43.6827 21.1649Z" fill="#F8F1EA"/>
<path d="M78.354 23.2461C79.701 19.0052 81.2635 11.2565 83.0415 0C84.7387 0 85.6277 0.510471 85.7085 1.53141C85.7355 1.84555 85.7489 2.06806 85.7489 2.19895C85.7759 2.32984 85.7355 2.78796 85.6277 3.5733C85.5199 4.33246 85.3583 5.40576 85.1428 6.79319C84.9542 8.18063 84.7117 9.79058 84.4154 11.623C84.1191 13.4555 83.7823 15.3665 83.4052 17.356C82.4892 22.0419 81.5463 25.9948 80.5765 29.2147C79.6067 29.8691 78.8524 29.9738 78.3136 29.5288C78.0711 29.2932 77.8556 28.9791 77.667 28.5864C77.4784 28.1675 77.2629 27.6963 77.0205 27.1728C76.6703 26.7277 76.0237 25.5497 75.0808 23.6387C74.1379 21.7277 73.3701 20.2094 72.7775 19.0838C72.2117 17.9581 71.6595 16.911 71.1207 15.9424C69.8815 13.7696 68.8443 12.5 68.0092 12.1335C67.0393 13.5995 65.3152 17.6178 62.8367 24.1885C62.4057 25.3403 62.0151 26.4136 61.6649 27.4084C61.3147 28.377 61.0183 29.1623 60.7759 29.7644L58.2705 29.6466L48.1681 6.95026C48.1142 6.81937 48.0873 6.68848 48.0873 6.55759C48.0873 6.4267 48.1277 6.29581 48.2085 6.16492C48.3163 6.03403 48.4914 5.91623 48.7338 5.81152C49.1918 5.65445 49.6498 5.57592 50.1078 5.57592C50.5657 5.57592 50.889 5.66754 51.0776 5.85079C51.2931 6.00785 51.4547 6.21728 51.5625 6.47906C51.6972 6.74084 51.805 7.0288 51.8858 7.34293C51.9666 7.65707 52.1148 8.06283 52.3303 8.56021C52.5727 9.05759 52.9095 9.79058 53.3405 10.7592C53.7985 11.7277 54.2834 12.7487 54.7953 13.822C55.3071 14.8953 55.819 15.9686 56.3308 17.0419C56.8427 18.089 57.3276 19.0576 57.7856 19.9476C58.7554 21.911 59.3615 23.0105 59.604 23.2461C62.729 15.7592 64.6552 11.322 65.3825 9.93456C66.1099 8.52094 66.5679 7.65707 66.7565 7.34293C67.0528 6.89791 67.2818 6.67539 67.4434 6.67539C68.6018 6.67539 70.555 9.18848 73.3028 14.2147C74.0571 15.5497 74.7575 16.8325 75.4041 18.0628C76.9935 21.0471 77.9768 22.7749 78.354 23.2461Z" fill="#F8F1EA"/>
<path d="M103.408 23.2461C101.387 26.3351 98.6934 28.2461 95.326 28.9791C94.5447 29.1361 93.8308 29.2147 93.1843 29.2147C92.5647 29.2147 92.0393 29.2147 91.6083 29.2147C91.2042 29.1885 90.7462 29.123 90.2344 29.0183C89.7225 28.9136 89.2511 28.7435 88.82 28.5079C87.8233 27.9581 87.3249 27.1859 87.3249 26.1911C87.2171 25.7199 87.1633 25.1963 87.1633 24.6204C87.1633 24.0183 87.298 23.233 87.5673 22.2644C87.8367 21.2958 88.3217 20.2487 89.0221 19.123C89.7495 17.9974 90.625 16.9634 91.6487 16.0209C93.7769 14.0314 96.0803 12.7487 98.5587 12.1728C99.2861 12.0157 99.9461 11.9372 100.539 11.9372C101.158 11.9372 101.711 11.9764 102.196 12.055C103.758 12.055 104.809 13.089 105.348 15.1571C105.698 16.466 105.9 18.2984 105.954 20.6544C106.034 22.9843 106.102 24.7906 106.156 26.0733C106.237 27.3298 106.412 28.4817 106.681 29.5288H104.297C104.189 28.822 104.108 28.1937 104.054 27.644C104.001 27.0942 103.947 26.5838 103.893 26.1126C103.758 25.0131 103.596 24.0576 103.408 23.2461ZM103.246 17.1597C103.246 15.6414 102.478 14.8822 100.943 14.8822C100.754 14.856 100.566 14.8429 100.377 14.8429C98.4106 14.8429 96.3362 15.7592 94.1541 17.5916C93.1304 18.4293 92.2548 19.3717 91.5275 20.4188C90.4499 21.911 89.9111 23.2461 89.9111 24.4241C89.9111 25.9686 90.827 26.8848 92.6589 27.1728C95.0835 27.1204 97.4003 26.0471 99.6094 23.9529C100.552 23.0366 101.334 22.0419 101.953 20.9686C102.815 19.5288 103.246 18.2592 103.246 17.1597Z" fill="#F8F1EA"/>
<path d="M108.944 14.5681C108.89 14.4372 108.863 14.2932 108.863 14.1361C108.863 13.9529 108.93 13.7173 109.065 13.4293C109.2 13.1414 109.388 12.8927 109.631 12.6832C109.9 12.4738 110.183 12.3822 110.48 12.4084C110.803 12.4084 111.059 12.5916 111.247 12.9581L118.036 25.2094C118.252 24.8953 118.588 24.3194 119.046 23.4817C119.531 22.6178 120.07 21.6492 120.663 20.5759C121.282 19.5026 121.915 18.3901 122.562 17.2382C123.235 16.0602 123.855 14.9869 124.421 14.0183C125.714 11.7932 126.482 10.6806 126.724 10.6806C127.29 10.6806 127.694 10.8901 127.936 11.3089C128.206 11.7016 128.341 12.0026 128.341 12.212C128.341 12.4215 128.341 12.5654 128.341 12.644C126.832 15.8377 125.431 18.7827 124.138 21.4791C122.872 24.1754 122.023 25.9293 121.592 26.7408C121.188 27.5262 120.824 28.1544 120.501 28.6257C119.935 29.4372 119.383 29.8429 118.844 29.8429C118.305 29.8429 117.686 29.4372 116.985 28.6257C116.285 27.788 115.49 26.6754 114.601 25.288C113.039 22.7749 111.153 19.2016 108.944 14.5681Z" fill="#F8F1EA"/>
<path d="M138.281 27.0157C140.652 27.0157 144.221 25.9686 148.99 23.8743C149.286 23.8743 149.529 23.9791 149.717 24.1885C149.906 24.3717 150 24.5942 150 24.856C148.922 26.6361 146.862 28.0236 143.817 29.0183C140.773 30.0131 137.931 30.1832 135.291 29.5288C132.301 28.7696 130.482 27.1335 129.836 24.6204C129.782 24.123 129.755 23.4555 129.755 22.6178C129.755 21.7801 129.97 20.6806 130.401 19.3194C130.859 17.9319 131.627 16.623 132.705 15.3927C133.782 14.1623 135.048 13.1937 136.503 12.4869C137.958 11.7801 139.507 11.4267 141.15 11.4267C142.713 11.4267 144.464 11.9503 146.404 12.9974C147.32 13.4948 148.047 14.0576 148.586 14.6859C149.124 15.3141 149.394 15.9555 149.394 16.6099C149.394 16.7932 149.38 16.9764 149.353 17.1597C149.3 18.7565 148.505 19.7644 146.969 20.1832C146.296 20.3665 145.515 20.4581 144.626 20.4581L138.807 20.2225C136.867 20.2225 135.385 20.6283 134.362 21.4398C133.769 21.8848 133.351 22.5524 133.109 23.4424C133.782 25.8246 135.506 27.0157 138.281 27.0157ZM145.474 14.8822C144.881 14.4634 144.262 14.1623 143.615 13.9791C142.969 13.7958 142.43 13.7042 141.999 13.7042C141.568 13.7042 140.867 13.8482 139.898 14.1361C138.928 14.3979 138.066 14.699 137.311 15.0393C135.453 15.877 134.523 16.7539 134.523 17.6702C136.678 17.8534 138.295 17.945 139.372 17.945C142.363 17.945 144.383 17.6963 145.434 17.199C146.08 16.9372 146.404 16.6099 146.404 16.2173C146.404 15.7461 146.094 15.301 145.474 14.8822Z" fill="#F8F1EA"/>
</svg>
