<svg width="100" height="30" viewBox="0 0 100 30" fill="none" xmlns="http://www.w3.org/2000/svg">
<path d="M37.5462 6.54314C37.5462 6.54314 35.4345 6.13399 35.4226 3.37604C35.4105 0.618626 38.1747 0.521204 38.1433 0.50849C38.1116 0.496031 38.7702 0.490351 38.9967 0.542055C39.5846 0.674648 39.8073 0.708204 39.8073 0.708204L40.4167 0.818333L40.8683 0.884632L41.4047 0.961763L41.9209 1.00723L42.5717 1.09436L43.0885 1.12763L43.9499 1.18392L44.6443 1.22747L45.2752 1.25022C45.2752 1.25022 48.9562 1.27321 51.196 0.71876C53.8654 0.0563297 53.1262 3.33112 51.827 3.78599C51.8173 3.78802 51.7308 17.2521 51.7308 17.2521L51.8589 17.4202L52.0045 17.553L52.1625 17.6865L52.3207 17.8293C52.3953 17.9065 52.7324 18.2382 52.7109 19.0254C52.6895 19.8126 52.2258 20.4771 51.6894 20.4439C51.1536 20.4103 50.1753 20.1984 50.1753 20.1984L49.86 20.1551L49.5248 20.1446H49.2288L48.925 20.1551C48.925 20.1551 47.7493 20.1835 47.2449 20.3635C47.0961 20.4171 46.8726 20.4414 46.8726 20.4414L46.5908 20.4311L46.3897 20.3873C46.3897 20.3873 45.6421 20.101 45.6325 18.9818C45.6225 17.8623 47.0005 17.3309 47.0005 17.3309V15.2375H43.8028V17.4199C43.8028 17.4199 44.8992 17.7625 44.8242 18.8589C44.749 19.9557 44.1557 20.4181 43.8557 20.4747C43.5505 20.5304 43.5089 20.4767 43.5089 20.4767L43.1401 20.3647L42.73 20.2773L42.4049 20.211C42.4049 20.211 40.9929 19.9036 39.8495 20.188L39.5656 20.244L39.3227 20.2876L39.1532 20.3211L38.9244 20.3541H38.7238L38.5027 20.3314C38.5027 20.3314 37.7356 20.244 37.7356 19.1478C37.7356 18.0511 39.0708 17.3513 39.0708 17.341C39.0901 16.8907 39.0823 14.9944 39.0823 14.9944L38.7546 14.9489C38.7546 14.9489 34.1726 15.0255 34.0028 10.2307C33.8884 6.9957 37.3155 6.62416 37.3254 6.622C37.4098 6.59951 37.5462 6.54326 37.5462 6.54326V6.54314ZM47.0322 5.24763C47.0322 5.24763 43.6521 5.42 43.6762 11.361C43.6762 11.3732 47.0558 11.361 47.0558 11.361L47.0322 5.24763H47.0322Z" fill="black"/>
<path d="M23.6814 1.49536C25.1429 1.51288 26.9991 1.00937 26.9991 1.00937L27.8682 0.837687L28.311 0.776638L28.8669 0.73093C28.8669 0.73093 34.3838 0.188242 34.3738 6.74172C34.3697 9.82091 30.2638 12.7522 30.2638 12.7522C30.2638 12.7522 30.0382 13.5512 30.8113 16.4825C31.5841 19.4141 32.8925 21.2292 32.8925 21.2292C32.8925 21.2292 33.7278 20.0001 35.8676 20.0132C36.6203 20.0178 40.2154 20.8535 39.9898 25.0164C39.7423 29.5654 35.7848 29.4999 35.775 29.4999C35.2696 29.4655 33.5787 29.8129 31.1332 27.2742C28.6652 24.7144 28.5243 23.4182 27.6429 21.7157C26.7613 20.0132 25.8191 15.8922 25.8191 15.8922L25.7648 15.625L25.6461 15.5902L25.5492 15.6008L25.4426 15.6143L24.5408 15.9724C24.5408 15.9724 24.4664 18.081 24.5408 18.1026C24.6155 18.1242 25.7648 18.4366 25.7547 19.5401C25.7425 20.8603 24.5731 20.8253 24.5731 20.8253C24.5731 20.8253 23.8326 20.8124 23.0052 20.5928C22.1778 20.3735 20.934 20.4781 20.934 20.4781C20.37 20.6742 19.6528 20.7418 19.5049 20.7538C19.377 20.7484 18.3813 20.6709 18.4096 19.6573C18.4419 18.5106 20 17.9523 20 17.9523L19.9897 11.8487C19.9897 11.8487 20 5.84909 19.9897 3.81255C17.8962 3.326 18.0274 1.845 18.0051 1.81023C17.9831 1.77544 17.9831 0.455175 19.0882 0.501173H19.2269L19.3227 0.514294C19.7926 0.630112 20.7923 1.46329 23.6814 1.49533L23.6814 1.49536ZM19.3227 0.514261L19.1522 0.503613L19.3227 0.514261ZM24.3899 4.63555V10.7498C24.3899 10.7498 25.5715 10.9453 27.2143 9.48651C27.7675 8.99558 28.3091 8.25934 28.3957 6.77642C28.4823 5.29295 27.7939 4.64622 27.0753 4.2399C26.3565 3.83412 25.4328 4.1249 25.4328 4.1249L25.2699 4.1813L25.1407 4.21635L24.992 4.26401L24.8432 4.3226L24.7121 4.39216L24.5954 4.44828L24.3899 4.63557V4.63555Z" fill="black"/>
<path d="M9.06507 0.502243C15.5391 0.65774 18.04 6.94751 17.9995 11.3535C17.9592 15.76 14.518 21.5712 8.94166 21.4993C3.36528 21.4281 -0.0738384 15.6542 0.00120352 11.015C0.0767685 6.37601 3.42751 0.366993 9.06507 0.502243ZM9.00886 3.97338C6.13504 3.95257 6.23518 12.5991 9.05383 12.6879C11.7501 12.7719 12.181 3.99741 9.00886 3.97338Z" fill="black"/>
<path d="M88.3551 17.7656C88.3551 17.7656 87.0402 18.1327 87.0006 19.3557C86.9748 20.1512 87.7722 20.4117 87.7722 20.4117L87.9304 20.4699L88.1837 20.5L88.3527 20.4907L88.5841 20.4802L88.7549 20.4434L88.9602 20.4074L89.1426 20.3834L89.4595 20.3371L89.8237 20.3167L90.273 20.2977L90.7814 20.28L91.2792 20.2622L92.2969 20.2824L92.9033 20.2814L93.5947 20.2946L94.4069 20.3231L95.2185 20.3789L95.8967 20.4072L96.6479 20.449L97.193 20.4847L97.6063 20.4675L97.7751 20.4435C97.7751 20.4435 98.1652 20.4807 98.534 19.3222C98.5899 19.1482 99.8006 15.8608 99.8006 15.8608C99.8006 15.8608 100.113 14.5833 98.975 14.3984C97.8369 14.2136 97.3163 15.8801 96.7004 16.3813C96.6544 16.4183 95.5801 17.643 94.7271 17.6414C93.8656 17.6394 92.4763 17.6173 92.4763 17.6173L92.5313 12.5077L93.9951 12.4923C93.9951 12.4923 94.54 13.4086 95.364 13.397C96.1881 13.3859 96.9462 13.0204 96.9937 12.2929C97.0209 11.888 97.0413 9.24067 97.0413 9.24067C97.0413 9.24067 97.0723 8.0168 95.5462 7.92768C94.7723 7.88299 94.3262 8.30558 94.1667 8.54887C94.1592 8.55946 92.4812 8.51661 92.4812 8.51661L92.4762 5.34852L94.7739 5.34554C94.7739 5.34554 95.6499 5.18715 97.0573 6.64638C97.3352 6.93251 97.9715 8.06592 99.0254 8.00616C100.08 7.94666 99.9985 7.09407 99.9985 7.09407L99.8853 6.56597L99.7336 6.11774L99.4441 5.23395L99.3074 4.79814L99.1342 4.22693L98.9726 3.67054L98.8095 3.16703L98.6839 2.73148L98.5676 2.41891C98.5676 2.41891 98.4539 1.44336 97.3321 1.56923C97.2964 1.5727 96.5184 1.63561 96.5184 1.63561L95.8629 1.65071L94.7837 1.70967L93.946 1.73348L91.3885 1.68377L90.4802 1.62613L89.7407 1.54415L88.8697 1.5L88.286 1.52855C88.286 1.52855 87.3772 1.60761 87.3839 2.6342C87.3849 2.91743 88.05 3.41248 88.4085 3.85543C88.4478 3.90383 88.355 17.7656 88.355 17.7656" fill="black"/>
<path d="M80.4768 21.6435C80.4768 21.6435 79.532 21.0791 78.4789 21.0719C77.4261 21.065 74.6686 22.2324 74.64 25.4825C74.6109 28.7326 76.2265 29.4082 78.6105 29.4932C80.9949 29.5797 82.8732 28.8328 83.9097 27.5363C84.9459 26.2404 85.7526 24.1963 85.7949 22.4292C85.7949 22.4165 85.9564 12.4082 85.9564 12.4082C85.9564 12.4082 87.0448 11.8396 86.9986 10.7821C86.9518 9.72502 86.3459 9.42643 85.9653 9.41928C85.5847 9.41212 85.1243 9.66256 85.1243 9.66256C85.1243 9.66256 84.0656 10.028 83.4057 9.98783C82.7458 9.94766 82.0482 9.7974 81.8351 9.75282C81.6374 9.71018 81.1396 9.57476 81.1396 9.57476L80.9756 9.55659L80.76 9.52687C80.76 9.52687 79.8824 9.54917 79.8798 10.6329C79.8757 11.7174 81.1209 12.3449 81.1209 12.3449L81.0746 15.2243C81.0746 15.2243 81.1382 15.9387 80.11 15.9599C79.0829 15.9814 78.4872 15.9296 77.5775 14.8839C76.6681 13.8381 76.5244 11.7227 76.5795 10.6266C76.6349 9.53017 77.0645 5.99665 79.8447 5.79162C81.0775 5.70163 82.1132 6.76637 82.1132 6.76637C82.1132 6.76637 83.1642 7.74635 83.8759 7.65058C84.5874 7.55481 85.2021 7.30713 85.2401 6.42925C85.2497 6.20882 85.2875 5.9328 84.8362 5.54312C84.7792 5.49471 84.1065 4.64653 84.4751 1.98566C84.6773 0.530142 83.0788 0.534264 82.9753 0.5172C82.8731 0.500154 82.3454 0.379045 81.0224 1.13832C80.9983 1.15067 80.6049 1.56101 78.7119 1.24481C78.6964 1.24224 75.7059 1.10199 73.4788 3.80773C72.9894 4.40243 71.2213 6.30211 71.0108 10.4936C70.8851 13.0004 71.8678 15.363 73.5134 17.37C73.9146 17.8574 75.8664 20.3842 80.4875 20.1354C80.5051 20.1334 80.4767 21.6435 80.4767 21.6435" fill="black"/>
<path d="M55.3543 17.677C55.3543 17.677 53.9882 18.1497 54.0001 19.278C54.0119 20.4058 54.9778 20.4063 54.9778 20.4063L55.1529 20.3914L55.4285 20.3238L55.617 20.2833C55.617 20.2833 57.6165 19.9887 58.7666 20.2964C58.7745 20.2984 58.9291 20.3259 58.9291 20.3259L59.1918 20.3794L59.3919 20.4321L59.6312 20.4745L59.8818 20.5L60.1206 20.4875C60.1206 20.4875 60.8619 20.339 60.8993 19.2935C60.9356 18.2477 60.0837 17.8958 60.0837 17.8958L60.0827 5.52943L60.1823 5.39365C60.1823 5.39365 60.7957 4.60695 61.8503 4.64715C62.9049 4.6879 63.5709 6.15319 63.5944 6.24904C63.6181 6.34409 64.3491 7.97316 64.3473 9.95578C64.3458 11.6525 63.5815 14.2165 63.5815 14.2165C63.5815 14.2165 63.1781 16.034 61.5886 18.5195C61.5825 18.528 61.4867 18.7102 61.4867 18.7102C61.4867 18.7102 61.2848 19.1428 61.2987 19.4822C61.3124 19.8214 61.4535 20.3919 62.167 20.3922C62.1785 20.3922 62.3789 20.3797 62.3789 20.3797L62.7177 20.3389L63.3314 20.2713L63.8466 20.2287L64.5366 20.2034H65.25L65.7399 20.2439L66.1417 20.2718L66.4552 20.2846L66.7316 20.3245L66.9317 20.3647L67.196 20.4201L67.4819 20.4481L67.747 20.4455L68.0229 20.4075C68.0229 20.4075 68.815 20.2552 68.8638 19.1434C68.9125 18.0322 68.0837 17.5551 67.7212 17.6933C67.7112 17.6969 67.4603 17.5423 66.4805 18.2209C66.476 18.223 66.3549 18.2886 66.3549 18.2886L66.204 18.3163H66.0532L65.9279 18.2764L65.8142 18.168L65.7397 18.032L65.7273 17.9217V17.7734L65.751 17.6502L65.8023 17.5573L65.89 17.434C65.89 17.434 68.5636 14.0263 68.9264 13.0362C69.2887 12.0455 69.8665 11.475 69.9924 9.01905C70.1132 6.63127 68.7606 4.59514 68.7606 4.59514C68.7606 4.59514 67.2571 2.13513 65.3874 1.49833C63.5178 0.86208 63.8587 0.942467 62.5903 0.874847C61.7358 0.827888 60.1541 1.24334 59.2037 1.79677C59.1879 1.80765 59.0782 1.81141 59.0782 1.81141L58.9273 1.76932L58.6003 1.55263C58.6003 1.55263 56.7954 0.399069 55.7032 0.507147C54.6114 0.614681 54.0217 1.45866 54.0473 2.32655C54.0728 3.1939 54.5003 3.93824 55.3157 4.57857C55.3257 4.58726 55.3541 17.677 55.3541 17.677" fill="black"/>
<path d="M44.1474 20.5L43.7528 20.3776L43.3239 20.2852L42.9976 20.2184C42.9496 20.2079 42.5906 20.1339 42.0994 20.0931C41.5878 20.0504 40.9 20.0407 40.2644 20.1966L39.9919 20.2509L39.7542 20.2936L39.5925 20.3252L39.4075 20.3525H39.2621L39.0696 20.3319C39.0372 20.3209 38.9714 20.2919 38.9269 20.2549C38.8573 20.1966 38.7235 20.049 38.7235 19.6413C38.7235 19.3081 38.9309 18.9839 39.2319 18.7004C39.3743 18.5667 39.5188 18.4602 39.6297 18.3851C39.6851 18.3483 39.7311 18.3194 39.763 18.3C40.0516 18.1235 40.0535 17.8587 40.0535 17.8485C40.0733 17.3937 40.0637 15.0616 40.0637 15.0616L39.2977 14.9546L39.2629 14.9551C39.2008 14.9561 35.154 14.9983 35.0025 10.7191C34.9537 9.33884 35.6388 8.58901 36.3726 8.15534C36.7469 7.93431 37.1297 7.80055 37.4234 7.72165C37.7294 7.64005 37.9479 7.61519 37.9503 7.61465C38.0552 7.58628 39.7515 6.91401 39.7515 6.91401C39.7515 6.91401 38.0536 6.54869 37.9069 6.48844C37.7431 6.42062 37.5238 6.30686 37.3051 6.1215C36.8829 5.76456 36.423 5.11282 36.4176 3.89068C36.4128 2.73825 36.9648 2.17649 37.5268 1.87224C37.818 1.71417 38.1149 1.62689 38.3412 1.57907C38.4531 1.555 38.5454 1.54124 38.6094 1.53341C38.6592 1.52693 38.7026 1.5153 38.7403 1.50018C38.7963 1.49816 38.8951 1.51393 38.9818 1.51555C39.1778 1.51909 39.3526 1.53124 39.4123 1.54499C40.0219 1.68307 40.2535 1.7171 40.2535 1.7171L40.8545 1.82627L41.3128 1.89383L41.86 1.97218L42.377 2.0184L43.0308 2.10568L43.5608 2.14052L44.4199 2.19645L45.1181 2.23993L45.7593 2.26345C45.7593 2.26345 46.695 2.26943 47.9064 2.20537C49.1288 2.14051 50.6371 2.0027 51.7784 1.71979C52.8554 1.45202 53.0072 1.92083 52.9997 2.34344C52.9888 2.99733 52.5527 3.69257 52.1511 3.83335C52.1511 3.83335 51.8322 4.1103 51.8282 4.44698L51.8237 4.87553L51.8117 6.40003L51.7793 11.0224L51.7338 17.9205L51.9921 18.2602L52.1766 18.4285L52.3407 18.5669L52.4743 18.689C52.4861 18.7014 52.5029 18.7192 52.5222 18.7444C52.545 18.7741 52.5742 18.8171 52.6028 18.8771C52.6577 18.9933 52.7203 19.1921 52.7115 19.5048C52.6925 20.203 52.3094 20.4499 52.19 20.4429C51.6789 20.4107 50.7309 20.204 50.7309 20.204L50.3767 20.1546L50.0113 20.1433H49.7021L49.3918 20.1538C49.3535 20.1553 49.066 20.1627 48.7214 20.1913C48.371 20.2205 47.8961 20.2754 47.5815 20.3883C47.5114 20.4129 47.3952 20.4313 47.3414 20.4383L47.136 20.4308L47.0257 20.4067C46.9861 20.3816 46.9079 20.3256 46.849 20.2597C46.7382 20.1346 46.5974 19.9014 46.5942 19.4707C46.5874 18.7568 47.5601 18.3256 47.6506 18.2904L47.9574 18.1718V15.243H43.8324V18.2845L44.1681 18.3896C44.2174 18.405 44.8976 18.6511 44.8516 19.3175C44.7887 20.2429 44.3124 20.4723 44.2733 20.4799C44.2195 20.4899 44.178 20.495 44.1451 20.4972L44.1471 20.4997L44.1474 20.5ZM46.8487 5.41197C46.4832 5.53789 46.0035 5.77486 45.5278 6.21989C44.5632 7.12184 43.6947 8.79793 43.7067 11.8667C43.7067 11.875 43.8259 12.3584 44.3161 12.3633L44.701 12.3648C45.0175 12.3651 45.4389 12.3648 45.8605 12.3638C46.7033 12.3623 48.0146 12.3576 48.0146 12.3576L47.987 5.25036C47.987 5.25036 47.2371 5.27736 46.8487 5.41167" fill="#FF8028"/>
<path d="M25.5033 1.25054C26.0951 1.13663 26.5383 1.02135 26.6267 0.997805L27.4648 0.831327L27.8806 0.774376L28.4256 0.729185C28.4256 0.729185 28.737 0.700178 29.1985 0.746449C29.6776 0.794359 30.307 0.92115 30.9293 1.2311C32.1313 1.82937 33.4012 3.15266 33.3966 6.24064C33.3931 9.00089 29.5881 11.7819 29.5105 11.8378L29.381 11.9306C29.381 11.9306 29.0398 12.973 29.8652 16.1163C30.6571 19.1312 31.9975 21.004 32.0175 21.0319L32.3919 21.5538C32.3919 21.5538 32.8153 20.9709 32.8886 20.895C32.9775 20.8036 33.1203 20.6743 33.323 20.5437C33.7261 20.2839 34.3809 20.0074 35.3547 20.0137C36.026 20.0172 39.1905 20.7795 38.991 24.4876C38.8774 26.5724 37.9385 27.5417 37.0593 28.0192C36.6062 28.2653 36.155 28.3864 35.814 28.4452C35.5302 28.4948 35.329 28.4997 35.2782 28.5C35.1493 28.4934 34.9524 28.5063 34.6932 28.4948C34.4555 28.4844 34.1581 28.4491 33.807 28.345C33.1059 28.1361 32.144 27.6372 30.9745 26.4182C29.7736 25.1675 29.1528 24.2404 28.7251 23.4299C28.2742 22.5745 28.0198 21.8257 27.5818 20.976C26.7407 19.3455 25.8164 15.3031 25.8102 15.2746L25.6988 14.7237L25.217 14.5824L25.0289 14.6035L24.8623 14.6243L23.6157 15.1215C23.6157 15.1215 23.5849 15.9851 23.5757 16.5196C23.5711 16.7914 23.569 17.0633 23.5725 17.2695C23.5744 17.3842 23.5782 17.4809 23.5838 17.5493C23.6176 17.9425 23.8893 18.0666 23.9504 18.0844C23.965 18.0885 24.0315 18.1071 24.1229 18.1454C24.2167 18.1854 24.3316 18.2437 24.4403 18.3248C24.6544 18.4838 24.8153 18.7007 24.8121 19.035C24.805 19.8367 24.1586 19.8263 24.1194 19.8249C24.1194 19.8249 23.43 19.8121 22.6627 19.6078C22.1934 19.4827 21.6308 19.4545 21.2083 19.4528C20.773 19.4513 20.3896 19.484 20.3896 19.484L20.3358 19.5032C19.8638 19.6678 19.249 19.7349 19.0565 19.7521C18.9884 19.7461 18.8235 19.7225 18.6802 19.642C18.548 19.5673 18.4358 19.4548 18.4436 19.1719C18.4642 18.4356 19.5956 17.9661 19.7067 17.9261L20.0282 17.81L20.0174 11.3484C20.0174 11.3484 20.0276 5.34715 20.0174 3.30949L20.0155 2.90973L19.6462 2.82376C18.7159 2.60636 18.3506 2.19018 18.1952 1.89721C18.1125 1.74141 18.0762 1.59601 18.0595 1.48813C18.0511 1.4331 18.0476 1.38737 18.0457 1.35506C18.0397 1.25074 18.0192 1.17135 18 1.11713C18.0105 1.02321 18.0757 0.931757 18.12 0.82415C18.1976 0.634949 18.3287 0.487913 18.6367 0.500784H18.7529C18.7859 0.510622 18.8595 0.531738 18.9016 0.550339C18.9765 0.582928 19.0617 0.623707 19.1601 0.669434C19.3758 0.769646 19.6492 0.892324 20.0017 1.01225C20.7162 1.25512 21.7319 1.47854 23.2156 1.49525C23.9732 1.50401 24.8329 1.37942 25.5034 1.25046L25.5033 1.25054ZM23.453 10.668C23.453 10.668 23.9575 10.7636 24.1505 10.7578C24.31 10.7523 24.5431 10.7285 24.8356 10.6502C25.4066 10.4972 26.1738 10.145 27.0444 9.36826C27.6846 8.79819 28.2934 7.93926 28.3883 6.30656C28.4891 4.57117 27.6489 3.76646 26.8249 3.29907C26.3561 3.03293 25.8451 3.0061 25.4839 3.03047C25.103 3.05701 24.8232 3.14712 24.8232 3.14712L24.6699 3.20078L24.5466 3.23393L24.3741 3.29006L24.1878 3.36317L24.0418 3.44094L23.8721 3.52361L23.453 3.9064V10.668V10.668Z" fill="#FF8028"/>
<path d="M16.9995 11.8488C16.9613 16.0722 13.6664 21.5668 8.44713 21.4994C3.22011 21.4325 -0.0706583 15.9678 0.00115191 11.5237C0.0732216 7.03775 3.29738 1.3753 8.55459 1.50209C14.6319 1.64832 17.0386 7.57084 16.9995 11.8488ZM5.95122 8.79591C5.96865 10.8784 6.66542 13.6201 8.54002 13.6795C12.1573 13.7925 11.9619 4.01134 8.51166 3.98516C6.58372 3.97088 5.93431 6.72587 5.95123 8.79591" fill="#FF8028"/>
<path d="M55.3316 10.6304L55.3191 6.12961L55.3136 4.64446L55.3111 4.22615C55.3087 3.86077 55.1315 3.69028 55.1294 3.68839C54.3961 3.1099 54.0669 2.4869 54.0472 1.81477C54.0299 1.2219 54.4228 0.590763 55.2784 0.505524C56.183 0.41567 57.834 1.45156 57.884 1.4836L58.2619 1.73443L58.565 1.82019C58.565 1.82019 58.9049 1.75994 58.9494 1.72899C59.8344 1.21159 61.3128 0.832901 62.0647 0.874704C62.3777 0.891266 62.5911 0.89889 62.7643 0.910828C62.9151 0.921141 63.0306 0.93445 63.1621 0.963493C63.4591 1.02945 63.8278 1.16627 64.7322 1.47546C66.4133 2.05096 67.8328 4.35429 67.8482 4.379C67.8482 4.379 68.1641 4.86056 68.4624 5.61032C68.7683 6.37801 69.0482 7.40387 68.993 8.49351C68.9333 9.67843 68.7659 10.3823 68.5815 10.8992C68.3775 11.4709 68.1442 11.8601 67.964 12.3542C67.6392 13.2454 65.053 16.5713 65.0142 16.6213L64.9029 16.7773L64.7984 16.9685L64.7502 17.2215L64.7505 17.4489L64.7764 17.6922L64.9367 17.9859L65.18 18.2183L65.4655 18.3105H65.7216L65.977 18.2636L66.1847 18.1496C66.649 17.8266 66.9258 17.7145 67.0405 17.6854C67.068 17.6789 67.0853 17.674 67.0971 17.6748C67.2718 17.6892 67.3425 17.6602 67.3532 17.6558C67.4132 17.6757 67.53 17.7413 67.6055 17.8157C67.7492 17.9569 67.8886 18.2107 67.8708 18.6182C67.8524 19.03 67.7071 19.2146 67.6044 19.3039C67.5465 19.3544 67.4897 19.385 67.4488 19.4021L67.1812 19.4474L66.9727 19.449L66.7336 19.4259L66.4921 19.3754L66.2805 19.333L65.972 19.2885L65.6381 19.2739L65.2499 19.2467L64.751 19.206L64.0156 19.2055L63.3122 19.2315L62.7836 19.275L62.1661 19.3437L61.839 19.3827L61.6554 19.3936C61.334 19.389 61.2707 19.2022 61.2607 18.9585C61.2531 18.7684 61.3909 18.4495 61.3998 18.431C61.4183 18.393 61.4605 18.3105 61.4637 18.3061C63.0031 15.8874 63.4643 14.0665 63.5146 13.852C63.5458 13.7467 63.7228 13.1327 63.8996 12.3392C64.0916 11.4795 64.2932 10.3673 64.2945 9.45765C64.2955 8.4033 64.1026 7.45103 63.9098 6.75446C63.7278 6.0959 63.5416 5.67106 63.53 5.62409C63.4978 5.49162 62.7462 3.70787 61.3673 3.65466C60.7296 3.63023 60.2257 3.85772 59.8857 4.08764C59.715 4.2022 59.584 4.31893 59.4934 4.40878C59.3926 4.50922 59.3368 4.58305 59.3368 4.58305L59.1343 4.8594L59.1348 17.7184C59.1348 17.7184 59.4557 17.8693 59.496 17.8951C59.5502 17.9291 59.6225 17.9817 59.6932 18.0561C59.8275 18.1981 59.9593 18.418 59.9467 18.7725C59.9331 19.1517 59.8016 19.3176 59.7131 19.3969C59.662 19.4419 59.6117 19.4693 59.5759 19.4848L59.3978 19.5L59.2021 19.4796L58.9979 19.4433L58.8041 19.3922L58.5262 19.3352L58.3761 19.3078C57.736 19.1397 56.9037 19.1416 56.2647 19.1764C55.6023 19.213 55.0744 19.292 55.0744 19.292L54.8675 19.3363L54.6192 19.3974L54.5013 19.4074C54.417 19.4034 54.0061 19.3539 54 18.7703C53.9924 18.0661 54.9329 17.6809 55.029 17.6475L55.348 17.5368L55.3318 10.6303L55.3316 10.6304Z" fill="#FF8028"/>
<path d="M80.4492 21.3964C80.4517 21.2054 80.4537 21.0144 80.4537 20.871C80.4542 20.316 79.9649 20.1327 79.9476 20.1344C77.7344 20.2538 76.194 19.7055 75.1586 19.089C74.6384 18.7791 74.2429 18.4493 73.9552 18.1691C73.8116 18.0296 73.6939 17.9018 73.6009 17.795C73.5053 17.6847 73.4347 17.596 73.3865 17.5377C71.8051 15.5999 70.8933 13.3608 71.01 11.0195C71.1115 8.99833 71.5848 7.5461 72.0816 6.53483C72.3304 6.02837 72.5866 5.62899 72.8098 5.32071C73.0392 5.0039 73.2336 4.78178 73.3516 4.63782C74.3864 3.37553 75.5981 2.77658 76.5573 2.4928C77.0349 2.35132 77.4483 2.28884 77.7437 2.26214C77.8875 2.24864 78.0026 2.24426 78.0822 2.24287C78.1227 2.24287 78.1456 2.23927 78.1462 2.23979C79.1179 2.40246 79.7406 2.38483 80.1439 2.30721C80.3466 2.26785 80.4971 2.21363 80.6082 2.15721C80.6801 2.12033 80.719 2.0873 80.7248 2.08427C81.3532 1.72149 81.7773 1.57864 82.0282 1.52799C82.1411 1.50543 82.2261 1.49883 82.2876 1.50017C82.3406 1.5012 82.3726 1.50872 82.3886 1.5117C82.4147 1.51583 82.5353 1.51887 82.6981 1.54421C82.8353 1.56538 82.9919 1.60311 83.1315 1.66917C83.377 1.7856 83.5534 1.96039 83.491 2.40932C83.1149 5.1376 83.7699 6.22042 84.0224 6.43539C84.1985 6.58898 84.2347 6.68037 84.2438 6.709C84.2489 6.72553 84.2515 6.74314 84.2523 6.769C84.2538 6.81716 84.2503 6.86204 84.2483 6.90416C84.2283 7.3718 83.9798 7.5576 83.2979 7.65008C82.8531 7.70981 82.0151 6.98452 81.912 6.89094C81.8865 6.86508 81.8164 6.79652 81.7088 6.70486C81.5796 6.59476 81.3932 6.44944 81.1638 6.30768C80.7123 6.02776 80.0526 5.73324 79.3094 5.78801C77.7006 5.90692 76.7811 7.01068 76.2766 8.1582C75.779 9.29057 75.653 10.5234 75.6242 11.0981C75.5694 12.1953 75.6919 14.5126 76.743 15.7265C77.7709 16.9144 78.5159 16.9857 79.6149 16.9632C80.2337 16.9502 80.6383 16.7179 80.8578 16.3626C80.959 16.1993 81.0024 16.0369 81.0205 15.9158C81.0338 15.8231 81.0338 15.7507 81.0322 15.7105L81.0836 12.5275L80.8104 12.389C80.7427 12.3546 79.8397 11.8485 79.8421 11.1342C79.8431 10.7709 79.9742 10.6561 80.0549 10.6038C80.1093 10.5686 80.1673 10.5487 80.2142 10.5377L80.414 10.5548L80.5493 10.5702C80.6663 10.6018 81.061 10.7081 81.2333 10.7452C81.4542 10.7917 82.1779 10.9473 82.8611 10.9891C83.2604 11.0136 83.7436 10.9173 84.0952 10.8289C84.4619 10.7378 84.7773 10.628 84.7773 10.628L84.8101 10.6101C84.8221 10.6035 85.1814 10.4163 85.4283 10.421C85.5732 10.4236 85.9653 10.525 85.9991 11.3051C86.0292 11.9916 85.2717 12.4301 85.2237 12.4556L84.9662 12.5908L84.8002 22.922C84.76 24.5611 84.0038 26.4945 83.0353 27.7111C82.1272 28.852 80.418 29.5762 78.1286 29.4936C75.8735 29.4124 74.5995 28.8426 74.6245 25.9894C74.6499 23.1141 77.0847 22.0699 77.9789 22.0762C78.4309 22.0788 78.8731 22.2036 79.2116 22.3346C79.5353 22.4601 80.4214 22.9859 80.4214 22.9859C80.4214 22.9859 80.4438 21.7753 80.4492 21.3966" fill="#FF8028"/>
<path d="M88.5007 10.3323C88.5104 8.5993 88.519 6.8644 88.5224 5.5598C88.5245 4.90697 88.5245 4.36158 88.5234 3.97801C88.5224 3.78372 88.5219 3.63088 88.5198 3.52528C88.5151 3.2159 88.4028 3.06199 88.3956 3.05354C88.2883 2.93106 88.1597 2.80515 88.0258 2.68028C87.9055 2.56783 87.7805 2.45643 87.6676 2.35031C87.5571 2.24551 87.4773 2.16341 87.4279 2.10058C87.4376 1.5552 87.9088 1.52827 87.9349 1.52669L88.5223 1.5L89.4222 1.54248L90.2143 1.62405L91.2115 1.68266L93.9807 1.73282L94.8984 1.70852L96.0647 1.64912L96.7679 1.63459L97.6634 1.56701C98.1068 1.52028 98.2796 1.67024 98.3535 1.7621C98.4007 1.82176 98.4302 1.88643 98.448 1.93816C98.4594 1.97171 98.4844 2.08628 98.4844 2.08628L98.6128 2.40727L98.745 2.83123L98.9223 3.34123L99.092 3.88478L99.2798 4.46052L99.4293 4.90084L99.7422 5.78861L99.8961 6.21072L100 6.66161C99.9953 6.69886 99.9825 6.76271 99.9594 6.80548C99.9311 6.85695 99.8358 7.00821 99.4135 7.03065C99.029 7.0507 98.6964 6.87332 98.3933 6.60353C98.2432 6.47022 98.1116 6.32371 97.9929 6.18459L97.8257 5.98608C97.7762 5.928 97.7195 5.86254 97.6623 5.80789C96.863 5.03838 96.1895 4.67144 95.6852 4.50249C95.4332 4.41776 95.2282 4.38371 95.0748 4.37315C94.9642 4.36525 94.8845 4.36968 94.8372 4.37363L91.9113 4.37808L91.9191 8.49277C91.9191 8.49277 92.8443 8.5147 93.2969 8.52419L93.9226 8.53634L94.1341 8.53833C94.4452 8.53932 94.6 8.35063 94.6069 8.34219C94.6981 8.21257 95.0362 7.88154 95.6727 7.91586C96.352 7.95227 96.5996 8.20807 96.7035 8.3757C96.7641 8.47285 96.7946 8.57026 96.8082 8.64391C96.8188 8.69697 96.8199 8.73604 96.8199 8.73604C96.8199 8.73604 96.7988 11.3574 96.7702 11.7576C96.7491 12.0567 96.3609 12.4004 95.4977 12.4115C94.9151 12.4191 94.4636 11.7634 94.443 11.732L94.2983 11.5052L91.9775 11.5279L91.9072 17.5818C91.9072 17.5818 93.8893 17.6111 94.8181 17.613C95.4541 17.6145 96.0884 17.2115 96.4998 16.8995C96.719 16.7337 96.9094 16.5661 97.0486 16.438C97.1169 16.3747 97.1722 16.3213 97.2122 16.2823C97.4414 16.1096 97.6595 15.8322 97.8223 15.6112C97.9815 15.3945 98.1463 15.1524 98.3288 14.9318C98.6856 14.4988 98.9754 14.3196 99.3115 14.3705C99.9192 14.4621 99.8467 15.035 99.8078 15.2076C99.6758 15.5405 98.5075 18.4881 98.4503 18.6528C98.2669 19.1879 98.0991 19.3817 98.0324 19.4406C98.0763 19.4445 98.1391 19.4477 98.1391 19.4477L98.0313 19.4497L97.8721 19.4711L97.4753 19.4861L96.9113 19.4513L96.0981 19.4093L95.366 19.381L94.4983 19.3256L93.614 19.2968L92.8624 19.2834L92.2059 19.2843L91.1098 19.2651L90.5611 19.2822L90.0137 19.3002L89.5261 19.3189L89.111 19.3413L88.7501 19.3899L88.5506 19.4142L88.312 19.4533L88.1572 19.4839L87.9441 19.4929L87.7999 19.5L87.6204 19.4802L87.4935 19.4371C87.4426 19.4218 86.9864 19.2492 87.0003 18.8588C87.0289 18.0367 88.0289 17.7379 88.0928 17.7213L88.4534 17.6276C88.4534 17.6276 88.4809 13.798 88.5006 10.3324" fill="#FF8028"/>
</svg>
