<svg width="100" height="26" viewBox="0 0 100 26" fill="none" xmlns="http://www.w3.org/2000/svg">
<path d="M13.5299 25.663C13.0853 25.3334 13.0952 25.2474 13.971 21.7411C14.4634 19.7692 14.9177 17.5293 14.9803 16.7635L15.0943 15.3713L13.9208 17.6802C11.8308 21.7927 10.2918 23.7897 8.30001 24.9737C7.05189 25.7155 4.73933 25.9654 3.19025 25.5254C0.032261 24.6288 -1.09505 20.3426 1.25048 18.15C2.66297 16.8297 6.70289 17.3585 6.25027 18.8047C6.1012 19.2812 5.97898 19.3197 5.05796 19.1797C4.16025 19.0431 3.95608 19.0999 3.42904 19.6347C2.96276 20.1076 2.82617 20.4869 2.82617 21.3105C2.82617 22.2057 2.94133 22.4729 3.55079 22.9931C4.80056 24.0596 6.72055 23.7097 8.26728 22.1335C9.33595 21.0449 11.1752 17.6164 13.5301 12.324C15.9769 6.82482 17.4495 3.85618 18.7287 1.84508C19.888 0.0221906 20.0722 -0.132105 20.8512 0.0661386C21.7333 0.290656 21.7795 1.09653 21.0097 2.84012C19.5578 6.12857 18.5144 9.99361 18.2386 13.1022L18.0799 14.8936L20.3816 11.5497C23.3029 7.30609 24.9912 5.18178 27.6429 2.41377C29.3351 0.647255 29.8935 0.204432 30.4297 0.204432C31.273 0.204432 31.5252 0.794386 31.034 1.61793C30.8319 1.9571 29.6382 3.95434 28.3816 6.0562C23.7237 13.8469 21.6151 19.5662 22.3624 22.3812C22.684 23.5927 23.2259 23.7866 24.544 23.163C25.9817 22.4827 26.7098 21.723 27.5595 20.0159C29.1133 16.8939 32.1952 14.5353 34.7209 14.5353C35.3836 14.5353 36.1379 14.6858 36.3967 14.8697C36.8003 15.1563 36.9319 15.1563 37.3184 14.8697C37.9059 14.4338 38.9581 14.4419 39.3206 14.885C39.553 15.169 39.363 15.7181 38.3077 17.8109C37.5932 19.2277 36.7636 20.8363 36.464 21.3857C36.1647 21.9348 35.9921 22.4576 36.0806 22.5475C36.6197 23.0942 39.054 20.4685 41.5323 16.6677C42.3891 15.3538 42.3957 15.3259 42.0415 14.466C41.5811 13.3487 41.5804 11.1296 42.0398 10.2282C42.426 9.47101 43.4759 8.80295 44.2794 8.80295C44.5549 8.80295 45.0902 9.11704 45.4686 9.50111C46.0308 10.0712 46.157 10.4016 46.157 11.302C46.157 11.9333 45.9556 12.8048 45.686 13.3411C45.0659 14.5738 45.0796 14.6201 46.014 14.4663C46.981 14.3072 47.8054 14.8131 47.8054 15.5657C47.8054 15.8557 47.0575 17.0537 46.1365 18.2391C43.0197 22.2506 42.5165 24.2626 44.8806 23.2607C46.4212 22.6079 47.2012 21.8288 50.8681 17.2806C53.5386 13.9683 54.5599 12.8634 54.9508 12.8634C55.5528 12.8634 56.5188 13.4837 56.5188 13.8703C56.5188 14.0151 56.0779 14.7261 55.5389 15.4501L54.5587 16.7666L54.8715 17.8605C55.0434 18.462 55.2301 19.4107 55.2864 19.9691C55.3427 20.5275 55.4407 20.9842 55.5042 20.9842C55.5678 20.9842 56.2298 20.5502 56.9756 20.0197C58.0572 19.2499 58.4536 18.7794 58.9363 17.691C61.5765 11.7384 63.6688 7.1635 63.9571 6.71304C64.364 6.07722 65.7115 5.96831 66.1743 6.5339C66.4868 6.91606 66.4814 6.93158 63.9689 12.9293L62.8903 15.5029L63.9053 14.8998C65.0185 14.2382 65.8844 14.1345 66.4522 14.595C66.9872 15.0288 67.3574 16.3515 67.1909 17.2343C67.0407 18.0316 65.9296 20.3766 64.8769 22.1187C64.5107 22.7247 64.3777 23.1338 64.547 23.1338C65.1826 23.1338 66.8445 21.4222 67.4721 20.1212C68.2968 18.4111 70.846 15.7678 72.4147 14.9956C73.9018 14.2635 75.7846 14.204 76.5064 14.8666C76.9331 15.2583 77.0151 15.2688 77.1368 14.9478C77.4335 14.1634 79.5973 14.2902 79.5973 15.0921C79.5973 15.2733 78.8554 16.8739 77.9488 18.6485C77.0421 20.4231 76.3003 22.108 76.3003 22.3927C76.3003 23.3058 76.9463 23.2298 78.1939 22.1703C79.1524 21.3566 79.6114 20.6837 80.5329 18.7421C82.8254 13.9114 86.3056 9.46146 89.485 7.29487C91.3362 6.03351 93.0205 6.16464 93.0205 7.57002C93.0205 8.31618 91.4954 11.6512 90.4486 13.1944C89.3788 14.7713 86.984 17.0439 84.7614 18.5914C82.3184 20.292 82.2256 20.3995 82.0462 21.7256C81.8717 23.0185 82.4748 23.7701 83.4815 23.5138C84.5318 23.2463 86.6889 20.7539 88.0659 18.2174C89.8775 14.8792 90.7781 13.4612 92.2772 11.5846C93.8473 9.6191 97.1977 6.75746 98.1863 6.53724C99.1509 6.32228 99.822 6.57689 99.9807 7.21796C100.147 7.88912 99.214 10.5229 98.1726 12.3238C97.1929 14.0175 93.9528 17.3145 91.5392 19.0734C89.6435 20.4549 89.2441 21.16 89.5827 22.5283C90.0198 24.2939 92.0295 23.5563 94.2323 20.822C95.512 19.2337 95.7124 19.0739 96.0258 19.3918C96.535 19.9082 96.2708 20.6214 94.8745 22.4973C93.5527 24.2734 91.7511 25.6401 90.4093 25.8846C88.9308 26.1541 87.3577 25.1084 86.8227 23.5C86.7803 23.3729 86.3826 23.6165 85.9387 24.0412C84.8224 25.1089 82.9799 26 81.8881 26C81.1918 26 80.8101 25.8335 80.2856 25.3018C79.9072 24.9178 79.5973 24.3804 79.5973 24.1076C79.5973 23.8348 79.5398 23.6115 79.4694 23.6115C79.399 23.6115 78.7897 24.034 78.1153 24.5502C76.0436 26.1361 74.962 26.2587 73.9725 25.0191L73.5759 24.5222L72.7599 25.0093C72.311 25.2768 71.4388 25.6102 70.8218 25.7497C69.515 26.0454 68.5276 25.732 67.6207 24.7341L67.0656 24.1236L66.1302 24.8108C64.7024 25.8598 63.7628 26.1065 62.9058 25.657C62.0197 25.1922 61.4625 24.4014 61.4698 23.6182C61.4729 23.2862 62.1087 21.7855 62.8828 20.2832C63.6566 18.7806 64.2901 17.4641 64.2901 17.3571C64.2901 16.8985 63.6161 17.2448 62.4238 18.3148C61.3172 19.3084 60.9684 19.8599 59.8185 22.4319C58.3003 25.8278 57.732 26.4094 56.5776 25.7485C55.9022 25.3616 55.7416 24.4974 56.1641 23.5186C56.292 23.2224 55.7736 23.4845 54.6536 24.2822C51.8329 26.2914 49.5606 26.4557 48.0014 24.7628L47.3719 24.0792L46.1167 24.8411C45.2195 25.3857 44.4786 25.6336 43.5173 25.71C42.2675 25.8096 42.1222 25.7659 41.4567 25.0909C40.9363 24.5631 40.7408 24.1403 40.7408 23.5425C40.7408 22.396 42.1321 19.6961 43.5588 18.075C44.3062 17.2254 44.6552 16.6575 44.4923 16.5552C44.1758 16.357 44.2897 16.2256 42.0403 19.3901C39.5589 22.8811 38.132 24.4143 36.6828 25.1468C35.2114 25.8904 34.2339 25.9274 33.5394 25.2655L33.0194 24.7702L32.0617 25.2655C30.8147 25.9109 29.1039 25.9176 28.0747 25.2813C27.6497 25.0181 27.2418 24.6445 27.1686 24.4511C27.0609 24.1668 26.8445 24.232 26.0476 24.7881C24.3709 25.9582 22.3348 26.2336 20.9028 25.4839C19.8077 24.9106 19.4024 22.4416 19.8501 19.0734L20.0248 17.7598L19.2877 19.0734C17.245 22.7158 14.8058 26 14.1431 26C14.0557 26 13.7797 25.8483 13.5299 25.663ZM51.9374 23.5026C52.4068 23.0266 52.5149 22.6786 52.512 21.6515C52.5085 20.1872 52.3081 19.2626 52.0156 19.3619C51.6007 19.5029 49.6894 22.0698 49.6894 22.4861C49.6894 22.9552 50.6888 24.089 51.1024 24.089C51.2437 24.089 51.6195 23.8251 51.9374 23.5026ZM72.6996 22.3017C74.6566 20.6025 76.0519 16.4437 74.7289 16.2526C72.9897 16.0014 69.6999 19.7921 69.6349 22.1223C69.5878 23.8014 70.8844 23.8774 72.6996 22.3014V22.3017ZM32.0631 22.6843C33.6579 21.6585 34.9719 19.5263 35.2423 17.5262C35.4024 16.3417 35.1062 16.031 34.0688 16.2949C31.9117 16.8442 28.675 21.7951 29.6745 23.0168C30.1139 23.5537 30.8764 23.4474 32.0631 22.6843ZM86.61 14.5948C88.2929 12.9147 90.7536 9.28041 90.2084 9.28041C90.0994 9.28041 89.1729 10.1775 88.1497 11.2741C86.3649 13.1863 84.09 16.4458 84.5401 16.4458C84.6587 16.4458 85.5904 15.613 86.61 14.5948ZM94.3048 14.1768C95.4654 13.0943 97.7989 9.28041 97.3008 9.28041C96.6193 9.28041 91.843 15.4126 91.843 16.2875C91.843 16.4291 92.3394 16.0661 92.946 15.4804C93.397 15.0438 93.8499 14.6092 94.3048 14.1768ZM44.2457 12.3618C44.4741 11.698 44.2794 10.7135 43.9198 10.7135C43.6198 10.7135 43.3204 11.7919 43.4519 12.3995C43.648 13.3048 43.9264 13.2916 44.2459 12.3618H44.2457Z" fill="black"/>
</svg>
