<svg width="100" height="16" viewBox="0 0 100 16" fill="none" xmlns="http://www.w3.org/2000/svg">
<path d="M88.7581 15.4997C90.2761 15.4961 91.7759 14.9444 92.5489 13.7663C92.5603 14.2334 92.776 14.9233 92.843 15.1813H95C94.9525 14.52 94.874 13.8301 94.8692 13.1649V0.5H92.6143V6.16025C91.9426 5.31826 90.4231 4.69221 89.1828 4.70974C85.5211 4.69221 83.668 7.34538 83.6599 10.0871C83.668 12.7052 85.2954 15.4963 88.7581 15.4997ZM49.6405 4.70996C49.5504 4.703 43.9133 4.76659 43.4967 10.1226C43.2171 13.2995 45.7762 15.5071 49.6405 15.4997C53.472 15.5069 55.7857 13.3101 55.7842 10.1226C55.7857 7.01662 53.2366 4.87265 49.6405 4.70996ZM56.6338 0.5H59.2809V15.1813H56.6338V0.5ZM74.5424 9.06127C74.5997 7.58964 76.8839 6.5072 78.0065 6.51417C79.7269 6.5072 80.119 7.96109 80.1634 9.06127V15.1813H82.3856V8.56601C82.3839 8.21591 82.3447 7.56852 82.1568 6.93865C81.7269 5.44589 79.5112 4.46952 78.3332 4.46211C76.5505 4.4693 75.3052 5.3077 74.5752 6.23103L74.5424 6.19575V4.63918H72.2548V15.1815H74.5424V9.06127ZM68.4966 13.8371C68.5014 14.2651 68.5504 14.7429 68.6272 15.1813H70.8167C70.7756 14.8914 70.6777 14.5943 70.6532 14.0847V8.53073C70.6579 5.44589 68.2755 4.703 65.9147 4.70996C64.6385 4.703 63.3835 4.86232 62.4178 5.3468C61.4814 5.81734 60.8539 6.61349 60.8166 7.8939H63.3003C63.256 7.41998 64.0893 6.42249 65.784 6.40811C67.0404 6.42249 68.2363 6.9955 68.2348 7.68154V8.63679C66.8248 8.59792 64.207 8.65095 62.8102 9.20284C60.658 9.97787 60.2756 11.6971 60.2611 12.4223C60.2756 14.4141 61.9325 15.5073 64.1499 15.4999C65.7366 15.5071 67.6974 15.0188 68.4966 13.8371ZM33.268 8.9197H37.7451C38.9426 8.94802 39.7368 10.4446 39.8365 11.2547C39.9917 12.5672 40.1582 13.8833 40.4573 15.1815H43.2352C42.5504 14.382 42.4229 12.6524 42.2548 11.7147C41.9523 9.70192 42.1875 8.6087 40.3919 8.24782V8.21254C42.4916 7.813 42.8835 6.25283 42.8756 4.35649C42.8837 1.34963 40.1092 0.532358 37.1894 0.500449H30.5882V15.1817H33.268V8.9197ZM0 0.641568H24.4444C26.9916 0.765609 28.825 2.31499 28.9869 5.34657C28.9034 8.09906 27.2955 9.89248 24.4444 10.0163H9.60784V10.8653H28.8235V12.4571H8.13734V8.42444H24.4118C26.4035 8.35388 27.3742 7.3456 27.5164 5.3468C27.3152 3.19608 26.1879 2.32578 24.4118 2.23365H1.4707V15.1107H0V0.641568Z" fill="#FF8200"/>
<path d="M4.46425 12.8852V15.2852H3V3.5H24.835V7.65526H9.05255C7.16332 7.74149 5.50395 8.60112 5.47315 11.0583C5.8357 13.1359 7.13418 13.8131 9.05255 13.8881H29V15.5H9.01989C7.27081 15.4251 5.2987 14.791 4.46425 12.8852Z" fill="#FF8200"/>
<path d="M4 8.5C4.90733 6.90509 6.75171 6.34358 8.57821 6.27226H23V5.5H4V8.5Z" fill="white"/>
<path d="M99.9998 2C100.012 1.16501 99.3291 0.5 98.5173 0.5C97.6639 0.5 96.9813 1.16501 97.0004 2C96.9916 2.81139 97.6639 3.48636 98.5173 3.5C99.3293 3.47618 100.012 2.81139 99.9998 2Z" fill="#FF8200"/>
<path d="M89.2932 6.4213C91.2292 6.43513 92.6284 8.60979 92.6432 9.96063C92.6284 11.3253 91.3671 13.3571 89.4574 13.3638C87.1797 13.3571 85.9184 11.4684 85.9102 9.96063C85.9184 8.45652 87.0416 6.43513 89.2932 6.4213ZM49.4544 13.5C47.2653 13.5103 45.8759 11.5298 45.8745 9.99478C45.8759 8.40551 47.1669 6.51684 49.4544 6.52354V6.48939V6.52354C51.7089 6.51684 52.9996 8.40573 53.0015 9.99478C52.9996 11.5298 51.6004 13.5103 49.4544 13.5ZM68.142 10.5393C68.0746 12.5711 66.7543 13.2959 64.792 13.2959C63.7983 13.2959 62.803 13.153 62.8541 11.7985C62.8623 10.7847 64.7342 9.89621 68.1418 10.2672V10.5393H68.142ZM33 2.81409H37.5324C39.1465 2.83116 40.0924 3.64785 40.0943 4.88996C40.0924 6.14936 39.1467 6.82315 37.5324 6.82985H33V2.81409ZM99.9999 1.82728C100.008 2.54539 99.4364 3.13769 98.752 3.15455C98.0276 3.13769 97.4562 2.54561 97.471 1.82728C97.4562 1.09576 98.0276 0.503459 98.719 0.5C99.4366 0.503459 100.008 1.09555 99.9999 1.82728Z" fill="white"/>
<path d="M98 3.5H98.1538V2.64275H98.5641C98.8242 2.63886 98.755 2.99384 98.7692 3.25522L98.7949 3.5H99C98.9243 3.31227 98.9474 3.26326 98.9231 3.01018C98.9166 2.66349 98.9089 2.63886 98.7949 2.52036C98.9089 2.35725 98.955 2.27168 98.9487 2.03053C98.9319 1.57338 98.7473 1.51219 98.5641 1.5H98V3.5Z" fill="#FF8200"/>
<path d="M98.6391 1.50228C98.7807 1.48513 99.0204 1.55558 98.9986 2.0304C98.9606 2.40049 98.7926 2.47093 98.6391 2.5H98V1.50228H98.6391Z" fill="white"/>
</svg>
