<svg width="100" height="34" viewBox="0 0 100 34" fill="none" xmlns="http://www.w3.org/2000/svg">
<path d="M90.2167 26.5698C89.0667 26.5698 88.1333 25.641 88.1333 24.4966V0H88.1167H80.9167H70.7333C62.3167 0 55.3167 6.07025 53.9167 14.0478V13.5668C53.9167 6.07024 47.8167 0 40.2833 0C32.75 0 26.65 6.07024 26.65 13.5668V26.321H10.2167C8.7 26.321 7.48333 25.1102 7.48333 23.601C7.48333 22.0917 8.7 20.881 10.2167 20.881H23.1V12.9034H11.35C9.81667 12.9034 8.58333 11.6595 8.58333 10.1502C8.58333 8.64098 9.81667 7.38049 11.35 7.38049H23.1167V0H11.3333C5.8 0 1.31667 4.46146 1.31667 9.96781C1.31667 12.3893 2.18333 14.6117 3.63333 16.3366C1.41667 18.161 0 20.9307 0 24.0156C0 29.5219 4.48333 33.9834 10.0167 33.9834C10.3 33.9834 33.8167 33.9834 33.8167 33.9834V13.6166C33.8167 10.0673 36.7167 7.18146 40.2833 7.18146C43.85 7.18146 46.75 10.0673 46.75 13.6166V34H53.9167V19.9522C55.3 27.8137 62.1 33.801 70.35 34H70.3667C70.5 34 70.6167 34 70.75 34C73.2167 34 76.35 33.1873 77.6667 31.9766V13.6498H70.35V26.5698C64.55 26.5698 60.75 22.1912 60.75 17C60.75 11.5102 65.2333 7.04878 70.75 7.04878H80.9333V24.5132C80.9333 29.7541 85.2 34 90.4667 34H100V26.5698H90.2167Z" fill="black"/>
</svg>
