<svg width="100" height="64" viewBox="0 0 100 64" fill="none" xmlns="http://www.w3.org/2000/svg">
<path d="M23.4998 16C25.4326 16 27 14.4324 27 12.4998C27 10.5672 25.4326 9 23.4998 9C21.567 9 20 10.5676 20 12.4998C20 14.4321 21.567 16 23.4998 16Z" fill="black"/>
<path d="M18.0801 19.444C18.0801 19.444 18.0801 14.7599 18.0801 12.3598C18.0801 9.95331 15.74 7.76435 13.9297 8.31508C12.1302 8.8723 4.56981 11.2208 4.25966 11.3617C3.95051 11.508 0 13.0572 0 17.4539L0.0596835 46.0225C0.0596835 46.0225 0.230016 48.8962 3.16993 48.8386C3.16993 48.8386 4.02998 48.8386 5.40974 48.0771C5.40974 48.0771 8.81002 46.1828 9.04004 46.0805C9.25966 45.9847 11.1102 45.3828 11.1699 47.9554V64L16.7503 62.1821C16.7503 62.1821 16.7503 48.4164 16.7503 47.9554C16.7503 46.9893 17.4407 42.2079 19.8602 40.2311C20.0101 40.1029 21.1806 39.3353 22.22 40.7559C23.2698 42.1769 24.1802 42.3941 24.1802 42.3941C24.1802 42.3941 25.3098 42.8995 26.3107 41.1655C26.3704 41.0441 28.1307 38.0807 28.2105 37.9463C28.2903 37.812 28.5505 37.415 29.3002 37.4795C29.3002 37.4795 31.1508 37.3577 30.86 39.9944C30.86 39.9944 39.4203 37.3513 40.1301 36.9478C40.2397 36.9032 43.5099 35.5722 45.4802 32.5C45.4802 32.5 46.07 31.6168 46.8096 31.6809C46.9397 31.6809 48.7601 31.7962 48.2403 34.2538C48.2403 34.2538 56.54 31.6748 57.0001 31.4446C57.9802 31.035 60.57 29.9404 60.5107 26.8812C60.5405 25.9724 60.3004 24.3856 59.0102 23.2463C58.9405 23.1757 53.3 18.9516 53.2501 18.9137C52.7599 18.4912 52.5101 17.5309 53.3098 16.5137C53.3098 16.5137 53.9398 15.5793 54.8696 15.637C54.8696 15.637 55.57 15.6049 56.6504 17.045C56.7898 17.1858 57.5899 18.274 58.1502 18.3889C58.1502 18.3889 58.6099 18.5424 59.1802 17.9794C60.5804 16.7442 61.3104 16.6931 61.3104 16.6931C61.3104 16.6931 63.3302 16.1045 63.3302 18.4466C63.3302 18.4466 63.3302 22.9077 63.3302 23.368C63.3302 24.4436 64.72 27.7391 67.8802 27.5795C67.8802 27.5795 68.97 27.4643 70.0104 27.17L73.4003 26.0631C73.4003 26.0631 77.67 24.7577 79.1601 21.961C79.1601 21.961 79.8699 20.5591 80.8899 20.5591C80.8899 20.5591 82.67 20.3228 82.5 23.0748L87.3401 21.4362V9.54989C87.3401 9.54989 87.2006 8.14219 88.8301 8.14219C90.4403 8.14219 90.39 9.42815 90.39 9.42815C90.39 9.42815 90.39 33.5108 90.39 34.0226C90.39 34.7139 91.1001 36.8639 93.4398 36.8319C93.4398 36.8319 100 36.7746 100 31.0913C100 30.6691 100 28.9279 100 28.9279L98.3299 29.5107V31.5646C98.3299 31.5646 98.4405 32.9474 96.8901 33.0238C96.7499 33.0559 95.23 32.9982 95.28 31.5005V1.40959C95.28 1.40959 95.1603 0.00154597 93.7795 0.00154597C93.7795 0.00154597 92.5198 -0.113716 91.5397 1.64625C90.5596 3.39973 90.2099 4.74366 88.8902 4.74366C88.8902 4.74366 87.3199 4.93565 87.3397 3.51465V1.99169L82.38 3.6364C82.38 3.6364 82.38 9.21706 82.38 9.42815C82.38 10.8682 81.3201 18.0104 79.4501 18.0356C79.3197 18.0551 77.56 18.3047 77.4896 16.5127C77.4896 16.5127 77.4896 10.3881 77.4896 9.78007C77.5396 8.87162 76.8401 6.1575 74.6097 6.44599L72.6003 6.85555C72.6003 6.85555 72.6003 20.9796 72.6003 21.4345C72.6003 21.8823 72.4397 24.0327 70.0597 24.1282C69.8498 24.1606 67.5298 24.0644 67.5298 21.7861V12.3022C67.5298 12.3022 67.4202 10.5999 69.0897 10.4846L69.1396 8.02693C69.1396 8.02693 64.0793 9.19831 61.7198 13.5312C61.4401 13.8381 60.85 14.1133 60.4496 14.1133C60.2099 14.1133 59.0702 14.0427 59.0099 12.8843C59.0099 12.6091 59.0099 11.3037 59.0099 11.3037L50.6602 14.113C50.6602 14.113 47.38 15.1694 47.38 18.5676C47.38 18.5676 47.38 20.9097 48.8201 22.017L54.6399 26.4713C54.6399 26.4713 55.63 27.1884 55.1499 28.4045C55.0892 28.6091 54.4095 30.0106 53.0194 30.0427C52.7491 30.0744 51.8693 30.0427 51.3493 28.6923C51.3493 28.6923 50.8896 26.9384 49.3995 27.4633C49.3995 27.4633 46.5994 28.4617 46.3999 28.5194C46.2104 28.577 44.5598 28.8713 44.5598 26.8808C44.5598 26.8808 44.5598 20.8074 44.5598 20.3214C44.5598 19.8345 43.9696 17.0573 41.6799 17.1599C41.6799 17.1599 40.3594 17.2752 39.2104 17.8061V20.6734C39.2104 20.6734 40.7601 20.4367 40.7601 22.4848V32.3851C40.7601 32.3851 40.8299 34.8554 38.29 34.9004C36.1595 34.8748 35.8101 32.8076 35.8101 32.558C35.7896 31.1568 35.8698 1.00071 35.8698 1.00071L30.8004 2.99052L30.86 24.5957C30.86 24.5957 30.5502 31.61 28.6098 34.3173C28.0506 35.0917 26.08 35.0917 25.91 33.3761V22.2536L20.9603 23.8345C20.9603 23.8345 20.9603 27.5847 20.9603 28.34C20.9603 29.0953 20.2699 38.0418 17.7401 37.9139C17.4199 37.9207 16.7399 37.5617 16.7295 36.0261L16.76 25.1273L11.9199 26.8808C11.9199 26.8808 11.87 32.8707 11.8596 33.2039C11.7097 35.1241 11.9793 43.8018 6.3298 43.8018C6.3298 43.8018 4.94971 43.8595 4.94971 42.1633V17.9211C4.94971 17.9211 5.10964 15.182 7.19957 14.2282C7.19957 14.2282 9.33007 13.4538 9.78977 13.2939C10.2397 13.1339 11.9796 13.2939 11.9796 15.2267V21.3769L18.0801 19.444Z" fill="black"/>
<path d="M96 1.49692C96 0.590079 96.7074 0 97.5005 0C98.2929 0 99 0.590079 99 1.49692C99 2.41576 98.2929 3 97.5005 3C96.7074 3 96 2.41576 96 1.49692ZM97.5005 0.316438C96.8772 0.316438 96.3866 0.809575 96.3866 1.49724C96.3866 2.19075 96.8776 2.68324 97.5005 2.68324C98.1132 2.68324 98.6137 2.19042 98.6137 1.49724C98.6137 0.809251 98.1132 0.316438 97.5005 0.316438ZM97.2357 2.33665H96.9149V0.657192H97.5381C97.9437 0.657192 98.1699 0.790771 98.1699 1.15584C98.1699 1.45996 97.9905 1.58154 97.7738 1.60618L98.1699 2.33665H97.8114L97.4435 1.6185H97.2357V2.33665ZM97.2357 1.36269H97.5191C97.7548 1.36269 97.8399 1.28423 97.8399 1.12569C97.8399 0.96747 97.7365 0.918837 97.5008 0.918837H97.236V1.36269H97.2357Z" fill="black"/>
</svg>
