<svg width="100" height="36" viewBox="0 0 100 36" fill="none" xmlns="http://www.w3.org/2000/svg">
<path d="M61.1624 0.5H63.1155C63.3983 0.527006 63.6822 0.54321 63.9661 0.566975C63.4747 2.59136 62.8481 4.57685 62.2752 6.57747C61.5867 8.90324 60.8992 11.2279 60.1745 13.5418C60.9363 13.1562 61.7188 12.8148 62.5271 12.5491C63.4375 12.2531 64.3676 11.8934 65.338 11.9992C65.6064 11.9776 65.852 12.1721 65.9388 12.4335C66.2412 13.1832 66.0234 13.9966 65.9862 14.7722C66.747 14.5897 67.1579 13.8443 67.6833 13.3171C68.5019 12.5696 69.5352 12.0781 70.6098 11.9128C71.3634 11.8448 72.1985 11.8588 72.8406 12.3276C72.9954 12.5588 72.9438 12.9228 72.7786 13.1421C72.2491 13.3971 71.6194 13.3431 71.1136 13.665C70.9329 13.8421 70.9092 14.123 70.8266 14.3542C70.2051 16.5255 69.5476 18.6881 69.0077 20.8832C68.8673 21.3066 69.0211 21.8932 69.4805 22.0002C69.9688 22.0196 70.4746 22.0693 70.9546 21.9472C71.3541 21.5951 71.5234 21.0495 71.7391 20.5688C72.5402 18.2884 73.0181 15.9043 73.5621 13.5472C73.6271 13.2804 73.6736 13.0093 73.7087 12.737C73.5239 12.6031 73.334 12.454 73.2917 12.2077C73.8522 11.861 74.5417 11.7735 75.1683 11.9463C75.6184 12.1159 76.0076 12.4173 76.3885 12.7144C76.6734 12.9272 76.7694 13.3377 76.6971 13.6844C76.4225 15.5532 75.766 17.3324 75.4357 19.1883C75.3738 19.5113 75.766 19.4994 75.9715 19.4864C76.9263 19.3827 77.8223 18.9333 78.6038 18.3662C78.8969 18.1836 79.0001 17.8293 79.0982 17.5106C79.4977 16.0912 79.8094 14.648 80.1666 13.2167C80.2688 12.8019 80.3927 12.3924 80.564 12.0035C81.5561 11.8437 82.5863 11.8177 83.5752 12.0133C83.5659 12.5988 83.2542 13.1 83.1034 13.6477C83.858 13.5029 84.5135 13.0654 85.2155 12.7684C86.064 12.3978 86.9507 11.9625 87.8953 12.0802C88.3722 12.0997 88.8677 12.4259 88.9616 12.9423C89.1588 13.6866 88.7841 14.392 88.6674 15.1103C89.2228 15.0747 89.8091 14.837 90.1549 14.3639C90.4729 13.6531 90.5844 12.817 91.1026 12.2185C91.2636 12.0133 91.5289 11.9971 91.7611 11.9582C92.9266 11.7961 94.1044 11.7627 95.2792 11.7681C96.6067 11.7648 97.9393 11.7637 99.2596 11.9355C99.5239 11.9722 99.8315 12.0792 99.9079 12.3838C100.068 12.9261 100.001 13.5159 99.849 14.0528C99.4816 15.4193 99.1708 16.8052 98.7321 18.1502C98.665 18.2863 98.6392 18.5142 98.4596 18.5304C97.5099 18.6784 96.5468 18.6784 95.5888 18.6914C94.6484 18.7097 93.7049 18.6103 92.7687 18.7281C92.3661 19.5858 92.0636 20.504 91.947 21.4546C91.9212 21.8079 91.9242 22.3026 92.2979 22.4603C93.069 22.684 93.9103 22.5576 94.6185 22.1784C95.1367 21.9094 95.5228 21.4427 95.9078 21.0042C96.5478 20.9977 97.1899 20.9502 97.8289 21.0182C97.7164 21.6998 97.4294 22.335 97.0846 22.9194C96.937 23.1441 96.7873 23.385 96.5612 23.5287C96.0028 23.6454 95.4299 23.6238 94.8642 23.6443C93.0381 23.6573 91.2058 23.6832 89.3869 23.4931C88.973 23.4682 88.5291 23.2835 88.3567 22.859C88.1399 22.267 88.239 21.6113 88.3495 21.0052C88.7294 19.4799 89.357 18.0346 89.7214 16.5039C89.7658 16.3127 89.7833 16.116 89.8019 15.9205C89.1939 16.2403 88.6148 16.6411 88.0831 17.0818C87.6929 18.1426 87.4235 19.252 87.0767 20.3312C85.9164 24.1974 84.7633 28.0668 83.6051 31.9341C83.5401 32.1242 83.5411 32.3273 83.5473 32.5272C83.7321 32.5887 83.9251 32.6968 84.1244 32.6222C84.3824 32.5887 84.4836 32.3154 84.5961 32.1091C84.7747 31.771 84.9037 31.4069 85.0514 31.0537C85.5231 30.9403 86.0289 31.0332 86.5141 31.0137C86.4553 31.4804 86.223 31.8909 86.0227 32.3025C85.5985 33.1062 85.1556 33.9012 84.6529 34.6542C84.5104 34.8594 84.3742 35.0787 84.178 35.2321C83.7868 35.4201 83.345 35.4233 82.928 35.5H81.1927C80.5919 35.4438 79.988 35.4071 79.3965 35.2753C79.444 34.7049 79.6154 34.1583 79.7599 33.6096C81.2722 28.2105 83.0074 22.8849 84.5682 17.502C84.7004 16.9208 84.9595 16.3591 84.944 15.7509C84.5125 15.6267 84.0769 15.7769 83.664 15.9043C83.2232 16.0653 82.7772 16.236 82.3829 16.5028C82.2043 16.6162 82.1476 16.8409 82.0753 17.031C81.5106 18.9603 81.0812 20.9318 80.5021 22.8568C80.3989 23.0793 80.3648 23.4444 80.0716 23.4704C79.1839 23.6594 78.2383 23.6994 77.365 23.4164C77.4569 22.2432 77.9493 21.1651 78.2445 20.0417C77.2153 20.7071 76.0179 21.0701 74.8112 21.1176C74.4808 21.7787 74.4065 22.7153 73.6726 23.0426C72.8168 23.4639 71.8403 23.4034 70.9195 23.4736C69.6457 23.5849 68.3718 23.4628 67.097 23.439C66.8461 23.4261 66.5323 23.4282 66.394 23.1647C66.0554 22.5954 65.6817 21.9505 65.8015 21.2505C65.946 20.2231 66.2649 19.2347 66.5106 18.2312C66.7037 17.4404 66.9679 16.6594 67.0257 15.8406C66.5788 16.3062 66.0482 16.7177 65.3947 16.7653C64.5803 18.9431 64.1539 21.258 63.3467 23.439C62.1761 23.6076 60.9725 23.6184 59.806 23.4174C59.8235 22.6278 60.063 21.8716 60.2571 21.1154C60.6556 19.5631 61.1263 18.0313 61.5041 16.4736C61.6311 15.967 61.7673 15.456 61.7622 14.9289C61.1903 14.9731 60.6514 15.2022 60.1528 15.4841C59.8101 15.6894 59.4488 15.941 59.3157 16.3537C58.8036 17.798 58.4847 19.306 58.0645 20.7806C57.8354 21.5681 57.6568 22.3761 57.3296 23.1279C57.2397 23.412 56.9208 23.4239 56.6833 23.4585C55.8183 23.5568 54.9336 23.5914 54.0748 23.4207C54.1821 22.3275 54.7282 21.3369 54.816 20.2394C53.921 20.5969 53.0394 21.1241 52.0495 21.0798C51.8358 21.7571 51.6376 22.4927 51.1142 22.9864C50.6311 23.4326 49.955 23.4931 49.3418 23.5287C48.2342 23.5503 47.1286 23.4617 46.022 23.4563C45.9074 23.7156 45.8042 23.9802 45.7268 24.2546C44.9237 26.9444 44.2165 29.6634 43.4496 32.3651C43.1574 33.319 42.9148 34.2901 42.5577 35.2213C41.3757 35.3855 40.1721 35.3606 38.9829 35.3012C39.1171 34.1907 39.4918 33.1332 39.7695 32.0573C41.1228 27.2804 42.664 22.5651 44.0338 17.7937C42.3368 19.6117 40.5313 21.3488 38.4802 22.7239C37.9331 23.0588 37.3344 23.4682 36.6696 23.3548C36.3176 23.2792 35.8603 23.1074 35.8696 22.6515C35.8675 21.8003 36.1968 21.002 36.429 20.2005C35.5702 20.6455 34.6597 21.1079 33.677 21.0776C33.422 21.8856 33.1454 22.8309 32.3474 23.223C31.4917 23.6022 30.5317 23.5006 29.6263 23.4736C28.9347 23.4736 28.2431 23.4131 27.5525 23.4488C27.3667 23.6162 27.3254 23.8927 27.2335 24.1196C26.0887 27.7914 25.2061 31.5463 24.0995 35.2299C23.2304 35.3682 22.3467 35.325 21.4714 35.3444C21.1121 35.3261 20.7395 35.3779 20.3916 35.271C20.372 34.8886 20.5268 34.5256 20.6115 34.1605C21.5643 30.8085 22.6574 27.5029 23.6815 24.1747C23.8652 23.5211 24.082 22.8773 24.2368 22.214C21.6458 23.0761 19.0249 23.9068 16.3151 24.2417C14.1267 24.5258 11.8392 24.5052 9.74676 23.7005C8.68042 23.2889 7.71317 22.6213 6.876 21.823C5.30074 20.0665 4.81144 17.6068 4.47286 15.3026C4.3686 14.7852 4.42331 14.2062 4.1673 13.7373C3.71104 13.5094 3.17735 13.5688 2.68392 13.5526C1.78894 13.5645 0.894984 13.5181 0 13.5353V13.2934C0.139357 12.8397 0.29007 12.373 0.609043 12.0198C1.4039 12.0295 2.19875 11.996 2.9936 12.01C3.49839 11.9917 4.04446 12.0846 4.50279 11.8048C4.82486 11.6503 4.89402 11.2571 5.02719 10.9525C5.80862 9.04259 6.78206 7.19753 8.09099 5.62361C9.26468 4.14475 10.7636 2.93812 12.4616 2.19491C14.2568 1.39769 16.2429 1.25185 18.1701 1.33179C21.3299 1.6213 24.3256 3.0537 26.8351 5.0446C26.4676 5.55556 25.9814 5.95309 25.4879 6.32037C25.2784 6.45864 25.0575 6.6196 24.8005 6.62284C24.625 6.57855 24.4794 6.45972 24.3256 6.3679C23.4977 5.80509 22.578 5.41404 21.7387 4.87068C19.766 3.65864 17.3309 3.11852 15.0991 3.78503C13.8501 4.12531 12.8632 5.08349 12.0601 6.09784C10.938 7.55833 10.0833 9.24676 9.57333 11.0443C9.4123 11.4569 9.69824 11.983 10.1256 12.0079C15.0372 12.0208 19.9498 11.9927 24.8614 12.0219C24.5723 12.5415 24.274 13.059 23.9261 13.5397C19.3201 13.5289 14.7151 13.5386 10.1091 13.5343C9.68895 13.4954 9.40301 13.908 9.22443 14.2515C8.88171 15.1525 9.04894 16.1971 9.50108 17.0235C10.4673 18.9679 12.12 20.5397 14.0947 21.2904C16.6073 22.2735 19.4264 22.1449 21.9679 21.3434C22.9114 21.0647 23.8126 20.6466 24.6724 20.1573C24.9863 19.9963 24.9563 19.5772 25.0585 19.279C25.5798 17.3076 26.1765 15.3566 26.8309 13.4295C27.0106 12.9855 27.1117 12.4907 27.3977 12.1051C27.6671 11.9571 27.9871 12.0046 28.2813 11.9755C29.1071 11.9733 29.9422 11.9603 30.7567 12.1256C30.7629 12.7133 30.5368 13.262 30.3964 13.8216C29.6852 16.344 28.8666 18.8329 28.1863 21.3661C28.111 21.6372 28.0635 21.917 28.0449 22.2C28.5755 22.2583 29.1505 22.3836 29.6563 22.1427C29.8844 21.8014 29.9608 21.379 30.0971 20.9934C30.8764 18.3219 31.5288 15.6116 32.2091 12.912C32.335 12.4918 32.0316 12.1559 31.7404 11.9225C32.4052 11.5088 33.2156 11.5542 33.9619 11.5336C34.2871 11.5542 34.6649 11.4569 34.9405 11.6935C35.3224 11.9938 35.5454 12.5242 35.4257 13.0211C35.116 14.9721 34.5534 16.8668 34.1157 18.7886C34.0889 18.9431 34.0806 19.0997 34.0724 19.2574C34.3624 19.3568 34.667 19.4961 34.9766 19.4054C35.7126 19.2466 36.2339 18.6244 36.6902 18.0454C37.0722 17.596 37.1083 16.9684 37.2745 16.4174C37.6306 15.1125 37.9599 13.7957 38.4399 12.5329C38.5401 12.3406 38.5979 12.0306 38.8528 12.0176C39.7922 11.8361 40.7564 11.8804 41.706 11.9215C41.8454 11.9636 42.0653 11.916 42.1375 12.0802C42.0766 12.7651 41.8547 13.4208 41.6782 14.0798C41.3551 15.1924 41.0361 16.3073 40.7378 17.4286C40.6418 17.7753 40.5881 18.134 40.5736 18.4958C40.7915 18.3921 40.9989 18.2657 41.1889 18.1134C42.2604 17.26 43.2834 16.3418 44.3229 15.4452C44.5046 15.281 44.7203 15.1233 44.7977 14.8716C45.0816 14.0647 45.2509 13.2177 45.5688 12.4227C45.6349 12.2639 45.7226 12.0867 45.9023 12.0489C46.4514 11.8998 47.0243 11.902 47.589 11.8955C48.1671 11.8998 48.7544 11.8707 49.3212 12.0219C49.2757 12.3222 49.2179 12.6193 49.1333 12.9099C48.4324 15.3912 47.6117 17.8326 46.8747 20.302C46.6992 20.9264 46.4824 21.5432 46.4153 22.1935C46.9583 22.2778 47.524 22.3458 48.0566 22.1622C48.4251 21.3315 48.614 20.4316 48.8845 19.5642C49.4677 17.3551 50.0427 15.1417 50.5785 12.9196C50.724 12.5037 50.3968 12.1807 50.1356 11.9258C50.5341 11.6341 51.0306 11.5963 51.5003 11.5563C52.0113 11.5358 52.5284 11.5045 53.0384 11.5563C53.5958 11.7497 53.9519 12.4346 53.8116 13.0319C53.5401 14.6264 53.1251 16.1884 52.7401 17.7548C52.6224 18.2485 52.4551 18.7367 52.4459 19.2509C52.8133 19.4065 53.2283 19.5199 53.6082 19.3319C54.3659 19.0003 54.9367 18.3046 55.3527 17.5841C56.0537 15.5889 56.6627 13.5591 57.3141 11.5444C58.4372 7.91589 59.6202 4.30571 60.6628 0.651235C60.8001 0.532407 60.9952 0.54429 61.1624 0.5V0.5ZM94.0735 14.1122C93.8061 15.1028 93.2249 16.0491 93.3715 17.1164C93.4097 17.2719 93.4438 17.5247 93.644 17.5204C94.1416 17.5765 94.6422 17.5258 95.1419 17.5182C95.4288 16.7782 95.6146 16.0015 95.8149 15.2335C95.9057 14.8025 96.0657 14.3844 96.0771 13.9394C95.6621 13.746 95.1976 13.8227 94.7579 13.7946C94.5101 13.8151 94.1178 13.7611 94.0735 14.1122Z" fill="#010101"/>
<path d="M40.6365 2.65304C41.9954 2.12173 43.6966 3.03117 43.9344 4.49548C44.3035 5.95337 43.0609 7.57086 41.5474 7.49052C40.2024 7.62121 38.9609 6.3797 39.0025 5.04286C38.9524 4.00059 39.6617 2.99475 40.6365 2.65304Z" fill="#010101"/>
</svg>
