<svg width="100" height="44" viewBox="0 0 100 44" fill="none" xmlns="http://www.w3.org/2000/svg">
<path d="M84.9317 40.8204H85.3723C85.5904 40.8204 85.7468 40.7918 85.8415 40.738C85.9336 40.6756 85.9779 40.5854 85.9779 40.4535C85.9779 40.3364 85.9353 40.2488 85.8415 40.1863C85.7511 40.1282 85.6086 40.0961 85.4279 40.0961H84.9317V40.8204ZM84.3982 42.3315V39.6806H85.6538C85.9666 39.6806 86.1934 39.7491 86.3359 39.8966C86.4758 40.0406 86.5488 40.2184 86.5488 40.4275C86.5488 40.6331 86.4897 40.7961 86.3698 40.9211C86.2508 41.0434 86.0726 41.1284 85.8319 41.1692C85.9414 41.2099 86.0266 41.268 86.09 41.3409C86.1543 41.4103 86.2569 41.5647 86.3968 41.7989L86.7061 42.3315H86.0396L85.8224 41.9065C85.6886 41.6497 85.5678 41.4754 85.467 41.3817C85.367 41.2889 85.2376 41.2412 85.0681 41.2412H84.9317V42.3315H84.3982ZM85.5608 38.9892C84.9499 38.9892 84.4477 39.1879 84.0662 39.5982C83.6865 39.9981 83.4962 40.4683 83.4962 40.9991C83.4962 41.5508 83.69 42.0271 84.0862 42.4183C84.4833 42.8086 84.9543 43.0064 85.5078 43.0064C86.0587 43.0064 86.5323 42.8086 86.9286 42.4183C87.3205 42.0271 87.5203 41.5508 87.5203 40.9991C87.5203 40.6183 87.4213 40.2705 87.2214 39.9521C87.0242 39.6294 86.7669 39.3865 86.4559 39.2261C86.1465 39.069 85.8441 38.9892 85.5608 38.9892ZM85.4348 38.5C86.1813 38.5 86.7948 38.7472 87.2762 39.2425C87.7593 39.737 88 40.3251 88 40.9991C88 41.6827 87.755 42.2717 87.2675 42.7609C86.7756 43.2528 86.1856 43.5 85.5009 43.5C84.8048 43.5 84.2183 43.2528 83.7291 42.7627C83.2398 42.2769 83 41.687 83 40.9991C83 40.5125 83.1277 40.0675 83.3867 39.6641C83.6422 39.259 83.9654 38.9624 84.3521 38.7785C84.7405 38.5902 85.0985 38.5 85.4348 38.5Z" fill="black"/>
<path d="M15 0.5L30 0.500896V18.5L15 0.5Z" fill="black"/>
<path d="M24.9924 12.5L25 30.5L19.6326 26.4367L16.0109 26.4402L16 16.882H19.6267L24.9924 12.5Z" fill="black"/>
<path d="M30 24.5V43.4888L15 43.5L30 24.5Z" fill="black"/>
<path d="M33 21.5V43.5L49 43.4876L33 21.5Z" fill="black"/>
<path d="M45 0.50897L60.9852 0.5L61 21.5L45 0.50897Z" fill="black"/>
<path d="M65 0.510601L65.0325 43.5L81 43.4867L80.9728 0.5L65 0.510601Z" fill="black"/>
<path d="M83 0.503513L83.0184 25.4959C83.0184 25.4959 83.4844 25.5038 87.92 25.4977C95.8101 25.4959 100.008 19.8871 100 13.0418C99.9939 6.18951 95.9614 0.494738 87.906 0.500004C83.5762 0.506147 83 0.503513 83 0.503513Z" fill="black"/>
<path d="M50.5116 43.5L53.1831 43.4973C63.0511 43.4894 64.5547 32.2304 61.738 28.0573C59.9433 25.4201 45.5942 6.66419 43.9865 4.45304C42.3177 2.15792 44.4385 0.5 44.4385 0.5L41.8203 0.507069C31.9462 0.512371 30.4434 11.8412 33.2654 16.0117C35.054 18.6523 49.2256 37.547 51.0133 39.623C53.0275 41.9578 50.5116 43.5 50.5116 43.5Z" fill="black"/>
<path d="M15 43.4876V0.5L0 0.514137L0.0283132 43.5L15 43.4876Z" fill="black"/>
</svg>
