<svg width="23" height="31" viewBox="0 0 23 31" fill="none" xmlns="http://www.w3.org/2000/svg">
<path d="M12.2193 0.5C6.07321 0.5 0 4.61108 0 11.2648C0 15.4961 2.37197 17.9002 3.80953 17.9002C4.40277 17.9002 4.74395 16.2414 4.74395 15.773C4.74395 15.2143 3.3246 14.0238 3.3246 11.6975C3.3246 6.86521 6.99037 3.43882 11.7343 3.43882C15.8132 3.43882 18.832 5.76507 18.832 10.0387C18.832 13.2304 17.5564 19.2167 13.423 19.2167C11.9317 19.2167 10.6552 18.1349 10.6552 16.5847C10.6552 14.3123 12.2365 12.113 12.2365 9.76845C12.2365 5.79008 6.61182 6.51132 6.61182 11.3196C6.61182 12.3293 6.73736 13.4468 7.18684 14.3671C6.35976 17.9377 4.67111 23.2567 4.67111 26.935C4.67111 28.0707 4.83308 29.1891 4.94041 30.3248C5.14359 30.5537 5.042 30.5297 5.35347 30.4152C8.37235 26.2676 8.26501 25.4569 9.63069 20.0293C10.3677 21.4362 12.272 22.1931 13.7814 22.1931C20.1421 22.1931 23 15.9721 23 10.3647C23 4.39663 17.8602 0.501923 12.2183 0.501923L12.2193 0.5Z" fill="#F8F1EA"/>
</svg>
