<svg width="36" height="36" viewBox="0 0 36 36" fill="none" xmlns="http://www.w3.org/2000/svg">
<path d="M36 34.1172L25.944 24.0611C28.3605 21.1601 29.5655 17.439 29.3084 13.6721C29.0513 9.90519 27.3518 6.38241 24.5635 3.83662C21.7751 1.29083 18.1127 -0.0819787 14.338 0.00378988C10.5633 0.0895584 6.96692 1.6273 4.29711 4.29711C1.6273 6.96692 0.0895584 10.5633 0.00378988 14.338C-0.0819787 18.1127 1.29083 21.7751 3.83662 24.5635C6.38241 27.3518 9.90519 29.0513 13.6721 29.3084C17.439 29.5655 21.1601 28.3605 24.0611 25.944L34.1172 36L36 34.1172ZM2.71076 14.6949C2.71076 12.3246 3.41361 10.0076 4.73045 8.03686C6.04728 6.06608 7.91894 4.53004 10.1088 3.62299C12.2986 2.71594 14.7082 2.47862 17.0329 2.94103C19.3576 3.40344 21.4929 4.54482 23.1689 6.22083C24.845 7.89684 25.9863 10.0322 26.4487 12.3569C26.9112 14.6816 26.6738 17.0912 25.7668 19.281C24.8597 21.4708 23.3237 23.3425 21.3529 24.6593C19.3821 25.9762 17.0651 26.679 14.6949 26.679C11.5176 26.6755 8.47142 25.4117 6.22472 23.1651C3.97802 20.9184 2.71428 17.8722 2.71076 14.6949Z" fill="black"/>
</svg>
