<svg width="42" height="33" viewBox="0 0 42 33" fill="none" xmlns="http://www.w3.org/2000/svg">
<path d="M40.112 6.19136C39.8841 5.28269 39.4378 4.4542 38.8178 3.78882C38.1978 3.12343 37.4258 2.6445 36.579 2.39994C34.265 1.44055 11.8472 0.970516 5.34322 2.42677C4.49637 2.67142 3.72428 3.15052 3.10424 3.8161C2.48419 4.48169 2.03797 5.3104 1.81024 6.21926C0.765246 11.1375 0.686247 21.7702 1.83624 26.7989C2.06412 27.7076 2.51042 28.5361 3.13045 29.2015C3.75048 29.8668 4.52249 30.3458 5.36922 30.5903C9.95219 31.7225 31.7401 31.8813 36.605 30.5903C37.4518 30.3458 38.2238 29.8668 38.8438 29.2015C39.4638 28.5361 39.9101 27.7076 40.138 26.7989C41.252 21.4407 41.331 11.4669 40.112 6.19136V6.19136Z" stroke="#F8F1EA" stroke-width="2" stroke-linecap="round" stroke-linejoin="round"/>
<path d="M27 17L17 10.5V23.5L27 17Z" stroke="#F8F1EA" stroke-width="2" stroke-linecap="round" stroke-linejoin="round"/>
</svg>
