<svg width="51" height="50" viewBox="0 0 51 50" fill="none" xmlns="http://www.w3.org/2000/svg">
<path d="M18.8718 37H13.8959V20.9764H18.8718V37ZM16.3812 18.7907C14.7901 18.7907 13.4995 17.4728 13.4995 15.8817C13.4995 15.1174 13.8031 14.3844 14.3435 13.844C14.884 13.3036 15.6169 13 16.3812 13C17.1455 13 17.8784 13.3036 18.4188 13.844C18.9593 14.3844 19.2629 15.1174 19.2629 15.8817C19.2629 17.4728 17.9718 18.7907 16.3812 18.7907ZM37.4947 37H32.5296V29.1998C32.5296 27.3409 32.4921 24.9569 29.9426 24.9569C27.3555 24.9569 26.9591 26.9766 26.9591 29.0659V37H21.9886V20.9764H26.7609V23.1622H26.8305C27.4948 21.9032 29.1175 20.5746 31.5385 20.5746C36.5743 20.5746 37.5 23.8908 37.5 28.198V37H37.4947Z" fill="#565656"/>
<rect x="0.999512" y="0.5" width="49.0007" height="49" stroke="#565656"/>
</svg>
