<svg width="14" height="12" viewBox="0 0 14 12" fill="none" xmlns="http://www.w3.org/2000/svg">
<path fill-rule="evenodd" clip-rule="evenodd" d="M3.78001 1.33333L5.00001 0H9.00001L10.22 1.33333H12.3333C13.0667 1.33333 13.6667 1.93333 13.6667 2.66667V10.6667C13.6667 11.4 13.0667 12 12.3333 12H1.66668C0.933344 12 0.333344 11.4 0.333344 10.6667V2.66667C0.333344 1.93333 0.933344 1.33333 1.66668 1.33333H3.78001ZM3.66668 6.66667C3.66668 8.50667 5.16001 10 7.00001 10C8.84001 10 10.3333 8.50667 10.3333 6.66667C10.3333 4.82667 8.84001 3.33333 7.00001 3.33333C5.16001 3.33333 3.66668 4.82667 3.66668 6.66667ZM7.00001 8.8C8.17822 8.8 9.13334 7.84487 9.13334 6.66667C9.13334 5.48846 8.17822 4.53333 7.00001 4.53333C5.8218 4.53333 4.86668 5.48846 4.86668 6.66667C4.86668 7.84487 5.8218 8.8 7.00001 8.8Z" fill="#969696"/>
</svg>
