<svg width="20" height="20" viewBox="0 0 20 20" fill="none" xmlns="http://www.w3.org/2000/svg">
<path d="M7.8082 13.125L7.21249 12.9055C6.74027 12.6906 6.31539 12.3842 5.96249 12.0039C5.41835 11.4219 4.81835 10.4137 5.04921 8.91367C5.25234 7.59609 6.77577 6.01484 7.75781 5.09063C8.82187 4.08984 10.3359 2.51836 10.2637 1.21758L10.2344 0.625H10.8273C12.8332 0.625 15 2.09453 15 4.46914C15 6.24922 14.1406 7.50078 12.3082 8.64492C11.9957 8.84023 11.666 9.02227 11.3152 9.2125C10.1187 9.86172 8.37421 11.159 7.9664 12.5453L7.8082 13.125ZM7.07773 4.43711C7.85155 3.71094 8.55116 3.05273 8.8914 2.33555C8.81952 2.2918 8.7453 2.25156 8.66874 2.21484C8.20507 1.99258 7.64921 1.88906 6.92031 1.88906H6.25859L6.28046 2.5332C6.29882 3.08242 6.04374 3.4125 5.7207 3.83047C5.38281 4.26797 4.99999 4.76328 4.99999 5.50781C4.99999 5.90742 5.05038 6.24062 5.16406 6.5375C5.2552 6.39922 5.35429 6.26081 5.46132 6.12227C5.93749 5.50781 6.51796 4.96289 7.07773 4.43711Z" fill="#FFCC00"/>
<path d="M12.9039 9.36914C12.5402 9.59961 12.1617 9.8043 11.7613 10.0219C10.4859 10.7129 9.28164 11.3672 8.90078 12.6562L8.87734 12.7344C9.43973 12.9914 10.0508 13.1246 10.6691 13.125C11.8277 13.125 12.9133 12.6902 13.7254 11.9C14.1313 11.5065 14.4534 11.0349 14.6724 10.5138C14.8915 9.99259 15.0029 9.43251 15 8.86719C14.9971 8.45402 14.9232 8.04442 14.7816 7.65625C14.3383 8.28828 13.7215 8.85078 12.9039 9.36914ZM10.4969 14.0625H9.50313C9.467 14.0625 9.43199 14.0751 9.40407 14.098C9.37615 14.1209 9.35705 14.1528 9.35 14.1883L8.35938 19.1883C8.35487 19.2109 8.35544 19.2343 8.36105 19.2567C8.36666 19.2791 8.37716 19.3 8.39181 19.3178C8.40645 19.3357 8.42487 19.3501 8.44574 19.36C8.46661 19.3698 8.48941 19.375 8.5125 19.375H11.4914C11.5145 19.375 11.5373 19.3698 11.5582 19.36C11.579 19.3501 11.5975 19.3357 11.6121 19.3178C11.6267 19.3 11.6372 19.2791 11.6429 19.2567C11.6485 19.2343 11.649 19.2109 11.6445 19.1883L10.652 14.1883C10.6448 14.1525 10.6254 14.1204 10.5971 14.0974C10.5688 14.0744 10.5333 14.0621 10.4969 14.0625ZM12.7219 13.8406L12.2781 14.2844C12.2526 14.3099 12.2366 14.3435 12.2331 14.3795C12.2295 14.4155 12.2385 14.4516 12.2586 14.4816L14.5816 17.9664C14.5945 17.9857 14.6114 18.0018 14.6312 18.0138C14.6511 18.0257 14.6733 18.033 14.6963 18.0353C14.7193 18.0376 14.7426 18.0347 14.7644 18.0269C14.7861 18.0191 14.8059 18.0066 14.8223 17.9902L16.4277 16.3848C16.4441 16.3684 16.4566 16.3486 16.4644 16.3269C16.4722 16.3051 16.4751 16.2818 16.4728 16.2588C16.4705 16.2358 16.4632 16.2136 16.4513 16.1937C16.4393 16.1739 16.4232 16.157 16.4039 16.1441L12.9191 13.8211C12.8891 13.801 12.853 13.792 12.817 13.7956C12.781 13.7991 12.7474 13.8151 12.7219 13.8406ZM15.1562 13.125C15.1148 13.125 15.0751 13.1415 15.0458 13.1708C15.0165 13.2001 15 13.2398 15 13.2812V13.6176C15 13.6546 15.013 13.6904 15.0369 13.7187C15.0608 13.7469 15.094 13.7658 15.1305 13.7719L18.568 14.3445C18.5903 14.3483 18.6133 14.3471 18.6351 14.3411C18.657 14.3351 18.6773 14.3244 18.6946 14.3097C18.712 14.2951 18.7259 14.2769 18.7354 14.2563C18.745 14.2357 18.75 14.2133 18.75 14.1906V13.2812C18.75 13.2398 18.7335 13.2001 18.7042 13.1708C18.6749 13.1415 18.6352 13.125 18.5938 13.125H15.1562ZM7.27813 13.8406L7.72187 14.2844C7.74744 14.3099 7.76337 14.3435 7.76693 14.3795C7.77049 14.4155 7.76147 14.4516 7.74141 14.4816L5.41836 17.9664C5.40554 17.9857 5.3886 18.0018 5.36877 18.0138C5.34894 18.0257 5.32671 18.033 5.30369 18.0353C5.28067 18.0376 5.25743 18.0347 5.23564 18.0269C5.21386 18.0191 5.19408 18.0066 5.17773 17.9902L3.57227 16.3848C3.5559 16.3684 3.54336 16.3486 3.53557 16.3269C3.52777 16.3051 3.52491 16.2818 3.52719 16.2588C3.52947 16.2358 3.53683 16.2136 3.54875 16.1937C3.56066 16.1739 3.57684 16.157 3.59609 16.1441L7.08086 13.8211C7.11093 13.801 7.14702 13.792 7.18299 13.7956C7.21896 13.7991 7.25258 13.8151 7.27813 13.8406ZM4.84375 13.125H1.40625C1.36481 13.125 1.32507 13.1415 1.29576 13.1708C1.26646 13.2001 1.25 13.2398 1.25 13.2812V14.1906C1.25003 14.2133 1.255 14.2357 1.26456 14.2563C1.27412 14.2769 1.28805 14.2951 1.30537 14.3097C1.32269 14.3244 1.34299 14.3351 1.36487 14.3411C1.38674 14.3471 1.40966 14.3483 1.43203 14.3445L4.86953 13.7719C4.90603 13.7658 4.93917 13.7469 4.96306 13.7187C4.98696 13.6904 5.00004 13.6546 5 13.6176V13.2812C5 13.2398 4.98354 13.2001 4.95424 13.1708C4.92493 13.1415 4.88519 13.125 4.84375 13.125Z" fill="#FFCC00"/>
</svg>
