<svg width="30" height="30" viewBox="0 0 30 30" fill="none" xmlns="http://www.w3.org/2000/svg">
<circle cx="15" cy="15" r="14" fill="white" stroke="#CCCCCC" stroke-width="2"/>
<path d="M16.6644 14.1405C16.7217 14.4434 16.7626 14.7462 16.7626 15.1391C16.7626 18.5689 14.4625 21 11 21C7.68487 21 5 18.3152 5 15C5 11.6848 7.68487 9 11 9C12.6207 9 13.9713 9.58934 15.0191 10.5716L13.3902 12.1351C12.9481 11.7094 12.1705 11.2101 11 11.2101C8.95362 11.2101 7.28375 12.9045 7.28375 15C7.28375 17.0955 8.95362 18.7899 11 18.7899C13.3738 18.7899 14.266 17.0791 14.4052 16.2032H11V14.1405H16.6644V14.1405ZM22.4583 14.3417V12.6H20.7083V14.3417H18.9667V16.0917H20.7083V17.8333H22.4583V16.0917H24.2V14.3417H22.4583Z" fill="#CCCCCC"/>
</svg>
