<svg width="30" height="30" viewBox="0 0 30 30" fill="none" xmlns="http://www.w3.org/2000/svg">
<circle cx="15" cy="15" r="14" fill="white" stroke="#CCCCCC" stroke-width="2"/>
<path d="M11.6861 21H9.19822V12.9882H11.6861V21ZM10.4408 11.8953C9.64528 11.8953 9 11.2364 9 10.4408C9 10.0587 9.1518 9.69222 9.42201 9.42201C9.69222 9.1518 10.0587 9 10.4408 9C10.823 9 11.1895 9.1518 11.4597 9.42201C11.7299 9.69222 11.8817 10.0587 11.8817 10.4408C11.8817 11.2364 11.2361 11.8953 10.4408 11.8953ZM20.9976 21H18.515V17.0999C18.515 16.1704 18.4963 14.9784 17.2215 14.9784C15.928 14.9784 15.7298 15.9883 15.7298 17.0329V21H13.2446V12.9882H15.6307V14.0811H15.6655C15.9977 13.4516 16.809 12.7873 18.0195 12.7873C20.5374 12.7873 21.0003 14.4454 21.0003 16.599V21H20.9976Z" fill="#CCCCCC"/>
</svg>
