<svg xmlns="http://www.w3.org/2000/svg">
    <symbol id="facebook" width="30" height="30" viewBox="0 0 30 30">
        <circle cx="15" cy="15" r="14" fill="white" stroke="#CCCCCC" stroke-width="2"/>
        <path d="M18.0059 15.75L18.3391 13.5783H16.2553V12.169C16.2553 11.5748 16.5464 10.9957 17.4797 10.9957H18.427V9.14672C18.427 9.14672 17.5673 9 16.7454 9C15.0293 9 13.9076 10.0402 13.9076 11.9231V13.5783H12V15.75H13.9076V21H16.2553V15.75H18.0059Z" fill="#CCCCCC"/>
    </symbol>
    <symbol id="twitter" width="30" height="30" viewBox="0 0 30 30">
        <circle cx="15" cy="15" r="14" fill="white" stroke="#CCCCCC" stroke-width="2"/>
        <path d="M21.2563 11.9906C21.2656 12.1219 21.2656 12.2531 21.2656 12.3844C21.2656 16.3875 18.2188 21 12.65 21C10.9344 21 9.34063 20.5031 8 19.6406C8.24376 19.6687 8.47811 19.6781 8.73125 19.6781C10.1469 19.6781 11.45 19.2 12.4906 18.3844C11.1594 18.3563 10.0437 17.4844 9.65936 16.2844C9.84688 16.3125 10.0344 16.3312 10.2313 16.3312C10.5031 16.3312 10.775 16.2937 11.0281 16.2281C9.64063 15.9469 8.59998 14.7281 8.59998 13.2562V13.2188C9.00309 13.4438 9.47187 13.5844 9.96871 13.6031C9.15309 13.0594 8.61873 12.1312 8.61873 11.0812C8.61873 10.5187 8.76871 10.0031 9.03122 9.55311C10.5219 11.3906 12.7625 12.5906 15.275 12.7219C15.2281 12.4969 15.2 12.2625 15.2 12.0281C15.2 10.3594 16.55 9 18.2281 9C19.1 9 19.8875 9.36562 20.4406 9.95625C21.125 9.82501 21.7812 9.57187 22.3625 9.225C22.1374 9.92814 21.6593 10.5188 21.0312 10.8937C21.6406 10.8281 22.2312 10.6594 22.775 10.425C22.3625 11.025 21.8469 11.5593 21.2563 11.9906Z" fill="#CCCCCC"/>
    </symbol>
    <symbol id="google" width="30" height="30" viewBox="0 0 30 30">
        <circle cx="15" cy="15" r="14" fill="white" stroke="#CCCCCC" stroke-width="2"/>
        <path d="M16.6644 14.1405C16.7217 14.4434 16.7626 14.7462 16.7626 15.1391C16.7626 18.5689 14.4625 21 11 21C7.68487 21 5 18.3152 5 15C5 11.6848 7.68487 9 11 9C12.6207 9 13.9713 9.58934 15.0191 10.5716L13.3902 12.1351C12.9481 11.7094 12.1705 11.2101 11 11.2101C8.95362 11.2101 7.28375 12.9045 7.28375 15C7.28375 17.0955 8.95362 18.7899 11 18.7899C13.3738 18.7899 14.266 17.0791 14.4052 16.2032H11V14.1405H16.6644V14.1405ZM22.4583 14.3417V12.6H20.7083V14.3417H18.9667V16.0917H20.7083V17.8333H22.4583V16.0917H24.2V14.3417H22.4583Z" fill="#CCCCCC"/>
    </symbol>
    <symbol id="linkedin" width="30" height="30" viewBox="0 0 30 30">
        <circle cx="15" cy="15" r="14" fill="white" stroke="#CCCCCC" stroke-width="2"/>
        <path d="M11.6861 21H9.19822V12.9882H11.6861V21ZM10.4408 11.8953C9.64528 11.8953 9 11.2364 9 10.4408C9 10.0587 9.1518 9.69222 9.42201 9.42201C9.69222 9.1518 10.0587 9 10.4408 9C10.823 9 11.1895 9.1518 11.4597 9.42201C11.7299 9.69222 11.8817 10.0587 11.8817 10.4408C11.8817 11.2364 11.2361 11.8953 10.4408 11.8953ZM20.9976 21H18.515V17.0999C18.515 16.1704 18.4963 14.9784 17.2215 14.9784C15.928 14.9784 15.7298 15.9883 15.7298 17.0329V21H13.2446V12.9882H15.6307V14.0811H15.6655C15.9977 13.4516 16.809 12.7873 18.0195 12.7873C20.5374 12.7873 21.0003 14.4454 21.0003 16.599V21H20.9976Z" fill="#CCCCCC"/>
    </symbol>
</svg>