<svg width="30" height="30" viewBox="0 0 30 30" fill="none" xmlns="http://www.w3.org/2000/svg">
<circle cx="15" cy="15" r="14" fill="white" stroke="#CCCCCC" stroke-width="2"/>
<path d="M21.2563 11.9906C21.2656 12.1219 21.2656 12.2531 21.2656 12.3844C21.2656 16.3875 18.2188 21 12.65 21C10.9344 21 9.34063 20.5031 8 19.6406C8.24376 19.6687 8.47811 19.6781 8.73125 19.6781C10.1469 19.6781 11.45 19.2 12.4906 18.3844C11.1594 18.3563 10.0437 17.4844 9.65936 16.2844C9.84688 16.3125 10.0344 16.3312 10.2313 16.3312C10.5031 16.3312 10.775 16.2937 11.0281 16.2281C9.64063 15.9469 8.59998 14.7281 8.59998 13.2562V13.2188C9.00309 13.4438 9.47187 13.5844 9.96871 13.6031C9.15309 13.0594 8.61873 12.1312 8.61873 11.0812C8.61873 10.5187 8.76871 10.0031 9.03122 9.55311C10.5219 11.3906 12.7625 12.5906 15.275 12.7219C15.2281 12.4969 15.2 12.2625 15.2 12.0281C15.2 10.3594 16.55 9 18.2281 9C19.1 9 19.8875 9.36562 20.4406 9.95625C21.125 9.82501 21.7812 9.57187 22.3625 9.225C22.1374 9.92814 21.6593 10.5188 21.0312 10.8937C21.6406 10.8281 22.2312 10.6594 22.775 10.425C22.3625 11.025 21.8469 11.5593 21.2563 11.9906Z" fill="#CCCCCC"/>
</svg>
