<svg width="51" height="50" viewBox="0 0 51 50" fill="none" xmlns="http://www.w3.org/2000/svg">
<path d="M25.5024 18.8467C22.0964 18.8467 19.3491 21.594 19.3491 25C19.3491 28.406 22.0964 31.1533 25.5024 31.1533C28.9084 31.1533 31.6557 28.406 31.6557 25C31.6557 21.594 28.9084 18.8467 25.5024 18.8467ZM25.5024 29.0004C23.3014 29.0004 21.502 27.2064 21.502 25C21.502 22.7936 23.296 20.9996 25.5024 20.9996C27.7088 20.9996 29.5029 22.7936 29.5029 25C29.5029 27.2064 27.7035 29.0004 25.5024 29.0004ZM33.3427 18.595C33.3427 19.3929 32.7 20.0302 31.9074 20.0302C31.1095 20.0302 30.4722 19.3876 30.4722 18.595C30.4722 17.8024 31.1148 17.1598 31.9074 17.1598C32.7 17.1598 33.3427 17.8024 33.3427 18.595ZM37.4181 20.0517C37.327 18.1291 36.8879 16.4261 35.4794 15.023C34.0763 13.6199 32.3733 13.1807 30.4508 13.0843C28.4693 12.9719 22.5302 12.9719 20.5487 13.0843C18.6315 13.1754 16.9285 13.6145 15.5201 15.0176C14.1116 16.4207 13.6778 18.1237 13.5814 20.0463C13.469 22.0278 13.469 27.9669 13.5814 29.9483C13.6725 31.8709 14.1116 33.5739 15.5201 34.977C16.9285 36.3801 18.6262 36.8193 20.5487 36.9157C22.5302 37.0281 28.4693 37.0281 30.4508 36.9157C32.3733 36.8246 34.0763 36.3855 35.4794 34.977C36.8825 33.5739 37.3217 31.8709 37.4181 29.9483C37.5305 27.9669 37.5305 22.0331 37.4181 20.0517ZM34.8582 32.0744C34.4405 33.1241 33.6318 33.9327 32.5768 34.3558C30.997 34.9824 27.2483 34.8378 25.5024 34.8378C23.7566 34.8378 20.0025 34.977 18.428 34.3558C17.3784 33.9381 16.5697 33.1294 16.1466 32.0744C15.5201 30.4946 15.6646 26.7458 15.6646 25C15.6646 23.2542 15.5254 19.5001 16.1466 17.9256C16.5643 16.8759 17.373 16.0673 18.428 15.6442C20.0078 15.0176 23.7566 15.1622 25.5024 15.1622C27.2483 15.1622 31.0024 15.023 32.5768 15.6442C33.6265 16.0619 34.4352 16.8706 34.8582 17.9256C35.4848 19.5054 35.3402 23.2542 35.3402 25C35.3402 26.7458 35.4848 30.4999 34.8582 32.0744Z" fill="#565656"/>
<rect x="0.999512" y="0.5" width="49" height="49" stroke="#565656"/>
</svg>
