<svg width="51" height="50" viewBox="0 0 51 50" fill="none" xmlns="http://www.w3.org/2000/svg">
<rect x="0.999512" y="0.5" width="49" height="49" fill="white"/>
<path d="M37.2371 18.9812C37.2559 19.2437 37.2559 19.5063 37.2559 19.7687C37.2559 27.775 31.1622 37 20.0246 37C16.5934 37 13.4059 36.0062 10.7246 34.2813C11.2121 34.3375 11.6808 34.3563 12.1871 34.3563C15.0183 34.3563 17.6246 33.4 19.7059 31.7688C17.0434 31.7125 14.8121 29.9688 14.0433 27.5687C14.4184 27.625 14.7933 27.6625 15.1871 27.6625C15.7309 27.6625 16.2746 27.5874 16.7809 27.4563C14.0059 26.8937 11.9246 24.4562 11.9246 21.5125V21.4375C12.7308 21.8875 13.6684 22.1688 14.662 22.2062C13.0308 21.1187 11.9621 19.2625 11.9621 17.1625C11.9621 16.0375 12.262 15.0062 12.7871 14.1062C15.7683 17.7812 20.2496 20.1812 25.2745 20.4437C25.1808 19.9937 25.1245 19.525 25.1245 19.0563C25.1245 15.7187 27.8246 13 31.1808 13C32.9245 13 34.4995 13.7312 35.6058 14.9125C36.9745 14.65 38.287 14.1437 39.4496 13.45C38.9995 14.8563 38.0433 16.0375 36.7871 16.7875C38.0058 16.6563 39.1871 16.3187 40.2745 15.85C39.4497 17.05 38.4184 18.1187 37.2371 18.9812Z" fill="#565656"/>
<rect x="0.999512" y="0.5" width="49" height="49" stroke="#565656"/>
</svg>
