<svg width="50" height="50" viewBox="0 0 50 50" fill="none" xmlns="http://www.w3.org/2000/svg">
<g clip-path="url(#clip0_0_565)">
<rect width="50" height="50" rx="15" fill="#4DADF7"/>
<path d="M30.5714 18.4286C30.5714 19.9821 30.253 21.3571 29.6161 22.5536C28.9851 23.744 28.1935 24.6548 27.2411 25.2857C28.1935 25.9167 28.9851 26.8304 29.6161 28.0268C30.253 29.2173 30.5714 30.5893 30.5714 32.1429H31.4286C31.5119 32.1429 31.5804 32.1696 31.6339 32.2232C31.6875 32.2768 31.7143 32.3452 31.7143 32.4286V33C31.7143 33.0833 31.6875 33.1518 31.6339 33.2054C31.5804 33.2589 31.5119 33.2857 31.4286 33.2857H18.2857C18.2024 33.2857 18.1339 33.2589 18.0804 33.2054C18.0268 33.1518 18 33.0833 18 33V32.4286C18 32.3452 18.0268 32.2768 18.0804 32.2232C18.1339 32.1696 18.2024 32.1429 18.2857 32.1429H19.1429C19.1429 30.5893 19.4583 29.2173 20.0893 28.0268C20.7262 26.8304 21.5208 25.9167 22.4732 25.2857C21.5208 24.6548 20.7262 23.744 20.0893 22.5536C19.4583 21.3571 19.1429 19.9821 19.1429 18.4286H18.2857C18.2024 18.4286 18.1339 18.4018 18.0804 18.3482C18.0268 18.2946 18 18.2262 18 18.1429V17.5714C18 17.4881 18.0268 17.4196 18.0804 17.3661C18.1339 17.3125 18.2024 17.2857 18.2857 17.2857H31.4286C31.5119 17.2857 31.5804 17.3125 31.6339 17.3661C31.6875 17.4196 31.7143 17.4881 31.7143 17.5714V18.1429C31.7143 18.2262 31.6875 18.2946 31.6339 18.3482C31.5804 18.4018 31.5119 18.4286 31.4286 18.4286H30.5714ZM29.4286 18.4286H20.2857C20.2857 19.6548 20.5387 20.7976 21.0446 21.8571H28.6696C29.1756 20.7976 29.4286 19.6548 29.4286 18.4286ZM28.9196 29.2857C28.5982 28.4464 28.1637 27.7292 27.6161 27.1339C27.0744 26.5327 26.497 26.1071 25.8839 25.8571H23.8304C23.2173 26.1071 22.6369 26.5327 22.0893 27.1339C21.5476 27.7292 21.1161 28.4464 20.7946 29.2857H28.9196Z" fill="white"/>
</g>
<defs>
<clipPath id="clip0_0_565">
<rect width="50" height="50" fill="white"/>
</clipPath>
</defs>
</svg>
