<svg width="51" height="50" viewBox="0 0 51 50" fill="none" xmlns="http://www.w3.org/2000/svg">
<rect width="50" height="50" rx="15" fill="#7752BE"/>
<path d="M30.1161 26.5982C30.3006 26.7768 30.3423 26.9821 30.2411 27.2143C30.1399 27.4524 29.9643 27.5714 29.7143 27.5714H26.3036L28.0982 31.8214C28.1577 31.9702 28.1577 32.1161 28.0982 32.2589C28.0387 32.4018 27.9375 32.506 27.7946 32.5714L26.2143 33.2411C26.0655 33.3006 25.9196 33.3006 25.7768 33.2411C25.6339 33.1815 25.5298 33.0804 25.4643 32.9375L23.7589 28.9018L20.9732 31.6875C20.8601 31.8006 20.7262 31.8571 20.5714 31.8571C20.5 31.8571 20.4286 31.8423 20.3571 31.8125C20.119 31.7113 20 31.5357 20 31.2857V17.8571C20 17.6071 20.119 17.4315 20.3571 17.3304C20.4286 17.3006 20.5 17.2857 20.5714 17.2857C20.7321 17.2857 20.8661 17.3423 20.9732 17.4554L30.1161 26.5982Z" fill="white"/>
</svg>
