<svg width="50" height="50" viewBox="0 0 50 50" fill="none" xmlns="http://www.w3.org/2000/svg">
<g clip-path="url(#clip0_0_549)">
<rect width="50" height="50" rx="15" fill="#FAB005"/>
<path d="M25.4821 23.6429V22.5893C25.4821 22.3393 25.3929 22.125 25.2143 21.9464C25.0357 21.7679 24.8214 21.6786 24.5714 21.6786C24.3214 21.6786 24.1071 21.7679 23.9286 21.9464C23.75 22.125 23.6607 22.3393 23.6607 22.5893V28.0536C23.6607 29.0952 23.2857 29.9851 22.5357 30.7232C21.7857 31.4613 20.8839 31.8304 19.8304 31.8304C18.7708 31.8304 17.8661 31.4583 17.1161 30.7143C16.372 29.9643 16 29.0595 16 28V25.625H18.9286V27.9643C18.9286 28.2202 19.0179 28.4375 19.1964 28.6161C19.375 28.7887 19.5893 28.875 19.8393 28.875C20.0893 28.875 20.3036 28.7887 20.4821 28.6161C20.6607 28.4375 20.75 28.2202 20.75 27.9643V22.4286C20.75 21.4107 21.125 20.5417 21.875 19.8214C22.631 19.1012 23.5298 18.7411 24.5714 18.7411C25.619 18.7411 26.5179 19.1042 27.2679 19.8304C28.0179 20.5565 28.3929 21.4315 28.3929 22.4554V23.6696L26.6518 24.1875L25.4821 23.6429ZM30.2143 25.625H33.1429V28C33.1429 29.0595 32.7679 29.9643 32.0179 30.7143C31.2738 31.4583 30.372 31.8304 29.3125 31.8304C28.2589 31.8304 27.3571 31.4613 26.6071 30.7232C25.8571 29.9792 25.4821 29.0833 25.4821 28.0357V25.6429L26.6518 26.1875L28.3929 25.6696V28.0804C28.3929 28.3304 28.4821 28.5446 28.6607 28.7232C28.8393 28.8958 29.0536 28.9821 29.3036 28.9821C29.5536 28.9821 29.7679 28.8958 29.9464 28.7232C30.125 28.5446 30.2143 28.3304 30.2143 28.0804V25.625Z" fill="white"/>
</g>
<defs>
<clipPath id="clip0_0_549">
<rect width="50" height="50" fill="white"/>
</clipPath>
</defs>
</svg>
