<svg width="50" height="50" viewBox="0 0 50 50" fill="none" xmlns="http://www.w3.org/2000/svg">
<g clip-path="url(#clip0_0_557)">
<rect width="50" height="50" rx="15" fill="#F03E3D"/>
<path d="M25.3929 31.9821C25.2857 32.0893 25.1548 32.1429 25 32.1429C24.8452 32.1429 24.7143 32.0893 24.6071 31.9821L19.0357 26.6071C18.9762 26.5595 18.8929 26.4821 18.7857 26.375C18.6845 26.2679 18.5208 26.0744 18.2946 25.7946C18.0685 25.5089 17.8661 25.2173 17.6875 24.9196C17.5089 24.622 17.3482 24.2619 17.2054 23.8393C17.0685 23.4167 17 23.006 17 22.6071C17 21.2976 17.378 20.2738 18.1339 19.5357C18.8899 18.7976 19.9345 18.4286 21.2679 18.4286C21.6369 18.4286 22.0119 18.494 22.3929 18.625C22.7798 18.75 23.1369 18.9226 23.4643 19.1429C23.7976 19.3571 24.0833 19.5595 24.3214 19.75C24.5595 19.9405 24.7857 20.1429 25 20.3571C25.2143 20.1429 25.4405 19.9405 25.6786 19.75C25.9167 19.5595 26.1994 19.3571 26.5268 19.1429C26.8601 18.9226 27.2173 18.75 27.5982 18.625C27.9851 18.494 28.3631 18.4286 28.7321 18.4286C30.0655 18.4286 31.1101 18.7976 31.8661 19.5357C32.622 20.2738 33 21.2976 33 22.6071C33 23.9226 32.3185 25.2619 30.9554 26.625L25.3929 31.9821Z" fill="white"/>
</g>
<defs>
<clipPath id="clip0_0_557">
<rect width="50" height="50" fill="white"/>
</clipPath>
</defs>
</svg>
