<svg width="40" height="40" viewBox="0 0 40 40" fill="none" xmlns="http://www.w3.org/2000/svg">
<rect width="40" height="40" rx="8" fill="#E0E0E0" fill-opacity="0.5"/>
<g clip-path="url(#clip0_9_110)">
<path d="M18.4375 10H21.5625C22.082 10 22.5 10.418 22.5 10.9375V17.5H25.9258C26.6211 17.5 26.9688 18.3398 26.4766 18.832L20.5352 24.7773C20.2422 25.0703 19.7617 25.0703 19.4688 24.7773L13.5195 18.832C13.0273 18.3398 13.375 17.5 14.0703 17.5H17.5V10.9375C17.5 10.418 17.918 10 18.4375 10ZM30 24.6875V29.0625C30 29.582 29.582 30 29.0625 30H10.9375C10.418 30 10 29.582 10 29.0625V24.6875C10 24.168 10.418 23.75 10.9375 23.75H16.668L18.582 25.6641C19.3672 26.4492 20.6328 26.4492 21.418 25.6641L23.332 23.75H29.0625C29.582 23.75 30 24.168 30 24.6875ZM25.1562 28.125C25.1562 27.6953 24.8047 27.3438 24.375 27.3438C23.9453 27.3438 23.5938 27.6953 23.5938 28.125C23.5938 28.5547 23.9453 28.9062 24.375 28.9062C24.8047 28.9062 25.1562 28.5547 25.1562 28.125ZM27.6562 28.125C27.6562 27.6953 27.3047 27.3438 26.875 27.3438C26.4453 27.3438 26.0938 27.6953 26.0938 28.125C26.0938 28.5547 26.4453 28.9062 26.875 28.9062C27.3047 28.9062 27.6562 28.5547 27.6562 28.125Z" fill="#4F4F4F"/>
</g>
<defs>
<clipPath id="clip0_9_110">
<rect width="20" height="20" fill="white" transform="translate(10 10)"/>
</clipPath>
</defs>
</svg>
