<svg width="38" height="38" viewBox="0 0 38 38" fill="none" xmlns="http://www.w3.org/2000/svg">
<rect width="38" height="38" rx="5" fill="#EFEEF3"/>
<path d="M18.6875 9C13.3458 9 9 13.3458 9 18.6875C9 24.0292 13.3458 28.375 18.6875 28.375C24.0292 28.375 28.375 24.0292 28.375 18.6875C28.375 13.3458 24.0292 9 18.6875 9ZM25.0926 13.4674C26.245 14.8755 26.9429 16.6689 26.9611 18.6219C26.6883 18.5642 23.9526 18.0093 21.1993 18.3556C20.9746 17.8071 20.7626 17.3246 20.4721 16.73C23.5315 15.4809 24.9181 13.7034 25.0926 13.4674ZM24.1727 12.5105C24.0239 12.7225 22.7783 14.3967 19.8359 15.4996C18.48 13.0083 16.9771 10.9618 16.7484 10.6555C19.3725 10.023 22.1377 10.7051 24.1727 12.5105ZM15.1696 11.2117C15.3877 11.5109 16.8664 13.56 18.2374 15.9972C14.3668 17.0251 10.9577 17.0103 10.5877 17.0054C11.1242 14.4377 12.8546 12.3036 15.1696 11.2117ZM10.4129 18.7001C10.4129 18.6155 10.4146 18.5313 10.4171 18.4473C10.7791 18.4547 14.789 18.5064 18.9213 17.2697C19.1581 17.7333 19.3844 18.2039 19.5921 18.6739C16.6 19.5167 13.8814 21.9367 12.5401 24.2328C11.2185 22.7658 10.4129 20.8254 10.4129 18.7001ZM13.6085 25.228C14.4728 23.4611 16.8186 21.1802 20.1545 20.0422C21.3162 23.0611 21.7967 25.5911 21.9197 26.3171C19.2591 27.4504 16.0598 27.1395 13.6085 25.228ZM23.3108 25.5596C23.226 25.0562 22.7856 22.6339 21.7033 19.6598C24.2963 19.2448 26.5744 19.9242 26.8575 20.0136C26.4887 22.3159 25.1671 24.3043 23.3108 25.5596Z" fill="#0D0D0D"/>
</svg>
