<svg width="38" height="38" viewBox="0 0 38 38" fill="none" xmlns="http://www.w3.org/2000/svg">
<rect width="38" height="38" rx="5" fill="#EFEEF3"/>
<path d="M19.0078 13.8739C16.1685 13.8739 13.8783 16.1641 13.8783 19.0033C13.8783 21.8426 16.1685 24.1328 19.0078 24.1328C21.8471 24.1328 24.1373 21.8426 24.1373 19.0033C24.1373 16.1641 21.8471 13.8739 19.0078 13.8739ZM19.0078 22.3382C17.173 22.3382 15.673 20.8426 15.673 19.0033C15.673 17.1641 17.1685 15.6685 19.0078 15.6685C20.8471 15.6685 22.3426 17.1641 22.3426 19.0033C22.3426 20.8426 20.8426 22.3382 19.0078 22.3382ZM25.5435 13.6641C25.5435 14.3292 25.0078 14.8605 24.3471 14.8605C23.6819 14.8605 23.1506 14.3248 23.1506 13.6641C23.1506 13.0033 23.6864 12.4676 24.3471 12.4676C25.0078 12.4676 25.5435 13.0033 25.5435 13.6641ZM28.9408 14.8783C28.8649 13.2757 28.4989 11.856 27.3247 10.6864C26.1551 9.51674 24.7355 9.15067 23.1328 9.07031C21.481 8.97656 16.5301 8.97656 14.8783 9.07031C13.2801 9.14621 11.8605 9.51228 10.6864 10.6819C9.51228 11.8516 9.15067 13.2712 9.07031 14.8739C8.97656 16.5257 8.97656 21.4766 9.07031 23.1283C9.14621 24.731 9.51228 26.1507 10.6864 27.3203C11.8605 28.49 13.2757 28.856 14.8783 28.9364C16.5301 29.0301 21.481 29.0301 23.1328 28.9364C24.7355 28.8605 26.1551 28.4944 27.3247 27.3203C28.4944 26.1507 28.8605 24.731 28.9408 23.1283C29.0346 21.4766 29.0346 16.5301 28.9408 14.8783ZM26.8069 24.9007C26.4587 25.7757 25.7846 26.4498 24.9051 26.8025C23.5881 27.3248 20.4632 27.2042 19.0078 27.2042C17.5524 27.2042 14.423 27.3203 13.1105 26.8025C12.2355 26.4542 11.5614 25.7801 11.2087 24.9007C10.6864 23.5837 10.8069 20.4587 10.8069 19.0033C10.8069 17.548 10.6908 14.4185 11.2087 13.106C11.5569 12.231 12.231 11.5569 13.1105 11.2042C14.4274 10.6819 17.5524 10.8025 19.0078 10.8025C20.4632 10.8025 23.5926 10.6864 24.9051 11.2042C25.7801 11.5525 26.4542 12.2266 26.8069 13.106C27.3292 14.423 27.2087 17.548 27.2087 19.0033C27.2087 20.4587 27.3292 23.5882 26.8069 24.9007Z" fill="#0D0D0D"/>
</svg>
